<svg version="1.1" xmlns="http://www.w3.org/2000/svg" width="1400" height="600"><defs><clipPath id="bBETrzuqiwFU"><path fill="none" stroke="none" d="M 45.5 27.5 L 1395.5 27.5 L 1395.5 573.5 L 45.5 573.5 L 45.5 27.5"/></clipPath><clipPath id="haNsGCCSyKSk"><path fill="none" stroke="none" d="M 45.5 27.5 L 1395.5 27.5 L 1395.5 573.5 L 45.5 573.5 L 45.5 27.5"/></clipPath><clipPath id="XCugWpbBAToH"><path fill="none" stroke="none" d="M 45.5 27.5 L 1395.5 27.5 L 1395.5 573.5 L 45.5 573.5 L 45.5 27.5"/></clipPath><clipPath id="PBSTtFVKiaTc"><path fill="none" stroke="none" d="M 45.5 27.5 L 1395.5 27.5 L 1395.5 573.5 L 45.5 573.5 L 45.5 27.5"/></clipPath></defs><path fill="rgb(255,255,255)" stroke="none" paint-order="stroke" d="M 0.5 0.5 L 1400.5 0.5 L 1400.5 600.5 L 0.5 600.5 L 0.5 0.5" fill-opacity="1"/><rect fill="#FFFFFF" stroke="none" x="45" y="27" width="1350" height="546" transform="matrix(1, 0, 0, 1, 0.5, 0.5)"/><path fill="rgb(255,255,255)" stroke="none" paint-order="stroke" d="M 45.5 27.5 L 1395.5 27.5 L 1395.5 573.5 L 45.5 573.5 L 45.5 27.5" fill-opacity="1"/><path fill="none" stroke="rgb(0,128,128)" paint-order="fill" d="M 106.86363983154297 521.8486328125 L 108.88883972167969 516.6843872070312 L 110.9140396118164 512.6046752929688 L 112.93924713134766 514.7131958007812 L 114.96444702148438 513.680419921875 L 116.9896469116211 516.4327392578125 L 119.01485443115234 522.1401977539062 L 121.04005432128906 528.0211181640625 L 123.06525421142578 526.6517333984375 L 125.09046173095703 522.0880126953125 L 127.11566162109375 519.8883666992188 L 129.140869140625 519.9229125976562 L 131.1660614013672 511.97039794921875 L 133.19126892089844 516.078369140625 L 135.2164764404297 517.731689453125 L 137.24166870117188 525.6326904296875 L 139.26687622070312 526.3223266601562 L 141.29208374023438 529.4285888671875 L 143.31727600097656 530.387939453125 L 145.3424835205078 531.8969116210938 L 147.36769104003906 529.6473999023438 L 149.39288330078125 520.5224609375 L 151.4180908203125 502.8966979980469 L 153.44329833984375 480.654296875 L 155.46849060058594 462.3714599609375 L 157.4936981201172 443.2413330078125 L 159.51890563964844 442.06500244140625 L 161.54409790039062 444.060546875 L 163.56930541992188 441.72119140625 L 165.59451293945312 429.22760009765625 L 167.6197052001953 419.8300476074219 L 169.64491271972656 418.5567932128906 L 171.6701202392578 405.969970703125 L 173.6953125 400.4702453613281 L 175.72052001953125 391.2640075683594 L 177.7457275390625 377.7607727050781 L 179.7709197998047 346.451171875 L 181.79612731933594 305.9674072265625 L 183.8213348388672 256.9544982910156 L 185.84652709960938 217.3476104736328 L 187.87173461914062 189.95899963378906 L 189.89694213867188 190.4977264404297 L 191.92214965820312 187.8106231689453 L 193.9473419189453 186.61936950683594 L 195.97254943847656 182.1844940185547 L 197.9977569580078 175.45948791503906 L 200.02294921875 170.8284912109375 L 202.04815673828125 170.45851135253906 L 204.0733642578125 176.4514617919922 L 206.0985565185547 175.77622985839844 L 208.12376403808594 169.74160766601562 L 210.1489715576172 164.77622985839844 L 212.17416381835938 164.89317321777344 L 214.19937133789062 165.25933837890625 L 216.22457885742188 168.8739776611328 L 218.24977111816406 173.53094482421875 L 220.2749786376953 180.92953491210938 L 222.30018615722656 191.71922302246094 L 224.32537841796875 195.93336486816406 L 226.3505859375 201.6057891845703 L 228.37579345703125 196.511474609375 L 230.40098571777344 203.3094940185547 L 232.4261932373047 200.15701293945312 L 234.45140075683594 199.4739990234375 L 236.47659301757812 189.71774291992188 L 238.50180053710938 193.1068115234375 L 240.52700805664062 195.2774658203125 L 242.5522003173828 200.7826385498047 L 244.57740783691406 213.5560302734375 L 246.6026153564453 225.53282165527344 L 248.6278076171875 227.1131134033203 L 250.65301513671875 210.88174438476562 L 252.67822265625 204.2896728515625 L 254.7034149169922 205.05113220214844 L 256.7286376953125 212.59202575683594 L 258.7538146972656 224.8686981201172 L 260.7790222167969 233.65176391601562 L 262.8042297363281 237.04689025878906 L 264.8294372558594 225.80296325683594 L 266.8546447753906 222.28749084472656 L 268.8798522949219 224.0730438232422 L 270.905029296875 227.6445770263672 L 272.93023681640625 245.59031677246094 L 274.9554443359375 249.29042053222656 L 276.98065185546875 248.45779418945312 L 279.005859375 228.2576141357422 L 281.03106689453125 220.25975036621094 L 283.0562438964844 219.0774383544922 L 285.0814514160156 226.7445526123047 L 287.1066589355469 238.40625 L 289.1318664550781 243.75050354003906 L 291.1570739746094 243.73089599609375 L 293.1822814941406 236.3065643310547 L 295.20745849609375 236.48768615722656 L 297.232666015625 245.61912536621094 L 299.25787353515625 257.6683044433594 L 301.2830810546875 263.79266357421875 L 303.30828857421875 259.9745788574219 L 305.33349609375 254.84934997558594 L 307.3586730957031 247.21075439453125 L 309.3838806152344 242.3609161376953 L 311.4090881347656 238.66525268554688 L 313.4342956542969 240.57205200195312 L 315.4595031738281 244.15159606933594 L 317.4847106933594 249.2877960205078 L 319.5098876953125 250.6751251220703 L 321.53509521484375 248.62196350097656 L 323.560302734375 246.0555877685547 L 325.58551025390625 251.14654541015625 L 327.6107177734375 256.8446960449219 L 329.63592529296875 259.0032043457031 L 331.6611022949219 259.2556457519531 L 333.6863098144531 259.4005126953125 L 335.7115173339844 264.79583740234375 L 337.7367248535156 271.5970153808594 L 339.7619323730469 277.7926330566406 L 341.7871398925781 290.995361328125 L 343.81231689453125 313.62823486328125 L 345.8375244140625 337.8985290527344 L 347.86273193359375 350.9398498535156 L 349.887939453125 353.1529541015625 L 351.91314697265625 347.0920715332031 L 353.9383544921875 343.8289489746094 L 355.9635314941406 339.8749694824219 L 357.9887390136719 350.7994079589844 L 360.0139465332031 359.35943603515625 L 362.0391540527344 356.982666015625 L 364.0643615722656 348.9466247558594 L 366.0895690917969 343.387939453125 L 368.1147766113281 342.260498046875 L 370.13995361328125 338.14825439453125 L 372.1651611328125 337.0734558105469 L 374.19036865234375 343.47125244140625 L 376.215576171875 342.6061706542969 L 378.24078369140625 336.8193054199219 L 380.2659912109375 332.2032470703125 L 382.2911682128906 336.5688171386719 L 384.3163757324219 340.0172119140625 L 386.3415832519531 338.6352233886719 L 388.3667907714844 334.509033203125 L 390.3919982910156 328.5263671875 L 392.4172058105469 326.5155334472656 L 394.4423828125 326.3421630859375 L 396.46759033203125 325.3614807128906 L 398.4927978515625 317.8018493652344 L 400.51800537109375 323.99884033203125 L 402.543212890625 331.12493896484375 L 404.56842041015625 336.6929016113281 L 406.5935974121094 325.802734375 L 408.6188049316406 321.2300109863281 L 410.6440124511719 322.4098815917969 L 412.6692199707031 326.5016784667969 L 414.6944274902344 335.8076477050781 L 416.7196350097656 344.9922790527344 L 418.74481201171875 342.3902587890625 L 420.77001953125 331.2154846191406 L 422.79522705078125 322.3438720703125 L 424.8204345703125 321.7988586425781 L 426.84564208984375 326.287109375 L 428.870849609375 322.0169982910156 L 430.8960266113281 320.59393310546875 L 432.9212341308594 316.0805358886719 L 434.9464416503906 316.87994384765625 L 436.9716491699219 318.105712890625 L 438.9968566894531 315.9735107421875 L 441.0220642089844 320.5278015136719 L 443.0472412109375 328.679931640625 L 445.07244873046875 334.7843322753906 L 447.09765625 327.947998046875 L 449.12286376953125 322.81842041015625 L 451.1480712890625 327.18310546875 L 453.17327880859375 330.589111328125 L 455.1984558105469 322.8321228027344 L 457.2236633300781 299.4643249511719 L 459.2488708496094 286.46417236328125 L 461.2740783691406 262.3043212890625 L 463.2992858886719 265.8695373535156 L 465.3244934082031 282.6256103515625 L 467.34967041015625 312.6807861328125 L 469.3748779296875 329.9113464355469 L 471.40008544921875 331.8771057128906 L 473.42529296875 336.66851806640625 L 475.45050048828125 331.27716064453125 L 477.4757080078125 321.8204040527344 L 479.5008850097656 297.85076904296875 L 481.5260925292969 286.2747802734375 L 483.5513000488281 289.515380859375 L 485.5765075683594 313.99481201171875 L 487.6017150878906 332.493896484375 L 489.6269226074219 337.0094299316406 L 491.6521301269531 332.8426513671875 L 493.67730712890625 333.68084716796875 L 495.7025146484375 335.2550964355469 L 497.72772216796875 345.29669189453125 L 499.7529296875 345.9547119140625 L 501.77813720703125 353.75653076171875 L 503.8033447265625 348.2955627441406 L 505.8285217285156 349.9859924316406 L 507.8537292480469 349.22076416015625 L 509.8789367675781 357.1260070800781 L 511.9041442871094 357.6489562988281 L 513.9293212890625 363.9316711425781 L 515.9545288085938 364.9039611816406 L 517.979736328125 362.37396240234375 L 520.0049438476562 354.519287109375 L 522.0301513671875 355.09942626953125 L 524.0553588867188 358.8818054199219 L 526.08056640625 358.8382568359375 L 528.1057739257812 361.8495178222656 L 530.1309814453125 367.51202392578125 L 532.1561889648438 365.7074279785156 L 534.181396484375 365.1080627441406 L 536.20654296875 357.5932922363281 L 538.2317504882812 360.240478515625 L 540.2569580078125 360.5189208984375 L 542.2821655273438 374.6151123046875 L 544.307373046875 391.7384033203125 L 546.3325805664062 388.66741943359375 L 548.3577880859375 382.90032958984375 L 550.3829956054688 370.4501647949219 L 552.408203125 371.17449951171875 L 554.4334106445312 372.6027526855469 L 556.4586181640625 383.9300537109375 L 558.4838256835938 394.9925537109375 L 560.5089721679688 395.681640625 L 562.5341796875 388.166748046875 L 564.5593872070312 380.95928955078125 L 566.5845947265625 380.0782165527344 L 568.6098022460938 384.8439636230469 L 570.635009765625 403.3569641113281 L 572.6602172851562 416.7260437011719 L 574.6854248046875 420.54425048828125 L 576.7106323242188 405.7044372558594 L 578.73583984375 400.2766418457031 L 580.7610473632812 396.95526123046875 L 582.7862548828125 399.2699890136719 L 584.8114013671875 406.1863098144531 L 586.8366088867188 413.7956848144531 L 588.86181640625 411.6363525390625 L 590.8870239257812 397.2422180175781 L 592.9122314453125 387.82928466796875 L 594.9374389648438 385.3607482910156 L 596.962646484375 365.87884521484375 L 598.9878540039062 350.474853515625 L 601.0130615234375 343.7785339355469 L 603.0382690429688 349.5468444824219 L 605.0634765625 351.0675354003906 L 607.0886840820312 350.104736328125 L 609.1138916015625 354.4936218261719 L 611.1390380859375 358.96014404296875 L 613.1642456054688 366.20318603515625 L 615.189453125 377.3648986816406 L 617.2146606445312 377.5906677246094 L 619.2398681640625 378.2327880859375 L 621.2650756835938 376.1610107421875 L 623.290283203125 376.19049072265625 L 625.3154907226562 373.82208251953125 L 627.3406982421875 379.0657043457031 L 629.3659057617188 386.5159912109375 L 631.39111328125 385.2857360839844 L 633.4163208007812 384.0337219238281 L 635.4414672851562 382.7107849121094 L 637.4666748046875 386.5613098144531 L 639.4918823242188 384.29949951171875 L 641.51708984375 387.21539306640625 L 643.5422973632812 388.59332275390625 L 645.5675048828125 389.4772033691406 L 647.5927124023438 388.451171875 L 649.617919921875 385.7814636230469 L 651.6431274414062 381.46575927734375 L 653.6683349609375 373.6127014160156 L 655.6935424804688 372.1419982910156 L 657.71875 379.2203674316406 L 659.743896484375 380.02459716796875 L 661.7691040039062 386.2080993652344 L 663.7943115234375 387.1674499511719 L 665.8195190429688 395.2784423828125 L 667.8447265625 392.0972900390625 L 669.8699340820312 390.5318908691406 L 671.8951416015625 393.9744873046875 L 673.9203491210938 382.74713134765625 L 675.945556640625 377.45794677734375 L 677.9707641601562 371.37518310546875 L 679.9959716796875 377.224853515625 L 682.0211791992188 376.83251953125 L 684.0463256835938 380.98455810546875 L 686.071533203125 385.38385009765625 L 688.0967407226562 381.1649475097656 L 690.1219482421875 371.567138671875 L 692.1471557617188 366.0659484863281 L 694.17236328125 366.3634948730469 L 696.1975708007812 366.9629821777344 L 698.2227783203125 369.5090637207031 L 700.2479858398438 377.7210388183594 L 702.273193359375 374.5126647949219 L 704.2984008789062 373.6893005371094 L 706.3236083984375 366.5992736816406 L 708.3487548828125 373.4347229003906 L 710.3739624023438 376.48583984375 L 712.399169921875 385.5278015136719 L 714.4243774414062 392.927490234375 L 716.4495849609375 392.1912841796875 L 718.4747924804688 383.7060852050781 L 720.5 371.3570861816406 L 722.5252075195312 367.42071533203125 L 724.5504150390625 362.4504699707031 L 726.5756225585938 371.2285461425781 L 728.600830078125 375.7980041503906 L 730.6260375976562 375.8080139160156 L 732.6512451171875 362.3076477050781 L 734.6763916015625 358.1164855957031 L 736.7015991210938 362.929931640625 L 738.726806640625 366.110107421875 L 740.7520141601562 372.5618591308594 L 742.7772216796875 377.55731201171875 L 744.8024291992188 379.39129638671875 L 746.82763671875 371.2935791015625 L 748.8528442382812 366.89788818359375 L 750.8780517578125 366.7950134277344 L 752.9032592773438 367.9059753417969 L 754.928466796875 365.22174072265625 L 756.9536743164062 364.1644287109375 L 758.9788208007812 358.4845275878906 L 761.0040283203125 352.8569030761719 L 763.0292358398438 353.06842041015625 L 765.054443359375 354.24969482421875 L 767.0796508789062 365.8285827636719 L 769.1048583984375 372.14971923828125 L 771.1300659179688 379.8591613769531 L 773.1552734375 374.6826477050781 L 775.1804809570312 368.73980712890625 L 777.2056884765625 359.103515625 L 779.2308959960938 349.7413024902344 L 781.256103515625 353.2867736816406 L 783.28125 367.2317810058594 L 785.3064575195312 388.3643798828125 L 787.3316650390625 390.12664794921875 L 789.3568725585938 386.4636535644531 L 791.382080078125 392.9687194824219 L 793.4072875976562 409.4544677734375 L 795.4324951171875 419.1951599121094 L 797.4577026367188 421.5224304199219 L 799.48291015625 418.293212890625 L 801.5081176757812 417.0427551269531 L 803.5333251953125 404.6102600097656 L 805.5585327148438 400.5789794921875 L 807.5836791992188 397.67864990234375 L 809.60888671875 397.9170227050781 L 811.6340942382812 400.455810546875 L 813.6593017578125 407.307373046875 L 815.6845092773438 406.36895751953125 L 817.709716796875 396.2236633300781 L 819.7349243164062 388.6355895996094 L 821.7601318359375 388.3616027832031 L 823.7853393554688 388.1819763183594 L 825.810546875 395.58905029296875 L 827.8357543945312 400.3604431152344 L 829.8609619140625 400.4129943847656 L 831.8861083984375 388.0791931152344 L 833.9113159179688 382.9909362792969 L 835.9365234375 382.9618835449219 L 837.9617309570312 383.7921447753906 L 839.9869384765625 387.58685302734375 L 842.0121459960938 388.9905700683594 L 844.037353515625 395.267333984375 L 846.0625610351562 393.1018981933594 L 848.0877685546875 395.4961242675781 L 850.1129760742188 394.0733947753906 L 852.13818359375 392.1619873046875 L 854.1633911132812 399.105224609375 L 856.1885986328125 404.4481506347656 L 858.2137451171875 408.9825744628906 L 860.2389526367188 406.8930969238281 L 862.26416015625 406.1152648925781 L 864.2893676757812 406.8467712402344 L 866.3145751953125 405.5311584472656 L 868.3397827148438 414.70477294921875 L 870.364990234375 422.6221008300781 L 872.3901977539062 426.4024963378906 L 874.4154052734375 414.8387756347656 L 876.4406127929688 404.5738830566406 L 878.4658203125 400.6152648925781 L 880.4910278320312 400.4933776855469 L 882.5161743164062 413.126953125 L 884.5413818359375 418.6441955566406 L 886.5665893554688 419.7789001464844 L 888.591796875 414.85894775390625 L 890.6170043945312 410.0058898925781 L 892.6422119140625 411.22808837890625 L 894.6674194335938 407.96533203125 L 896.692626953125 411.5994873046875 L 898.7178344726562 413.2463684082031 L 900.7430419921875 407.8348693847656 L 902.7682495117188 402.07757568359375 L 904.79345703125 398.5567321777344 L 906.818603515625 401.4241638183594 L 908.8438110351562 401.19317626953125 L 910.8690185546875 408.0021667480469 L 912.8942260742188 408.73114013671875 L 914.91943359375 408.4330139160156 L 916.9446411132812 403.9877014160156 L 918.9698486328125 400.106201171875 L 920.9950561523438 390.8919372558594 L 923.020263671875 385.1110534667969 L 925.0454711914062 389.0356140136719 L 927.0706787109375 397.6185302734375 L 929.0958862304688 395.33935546875 L 931.1210327148438 395.4496765136719 L 933.146240234375 395.0774230957031 L 935.1714477539062 400.02374267578125 L 937.1966552734375 399.7697448730469 L 939.2218627929688 405.6623229980469 L 941.2470703125 411.0296325683594 L 943.2722778320312 411.218505859375 L 945.2974853515625 408.3704528808594 L 947.3226928710938 404.0179748535156 L 949.347900390625 404.736083984375 L 951.3731079101562 408.4180603027344 L 953.3983154296875 417.6130676269531 L 955.4234619140625 427.63409423828125 L 957.4486694335938 426.16864013671875 L 959.473876953125 421.52874755859375 L 961.4990844726562 411.130615234375 L 963.5242919921875 409.1916198730469 L 965.5494995117188 406.4105224609375 L 967.57470703125 415.215576171875 L 969.5999145507812 419.2093505859375 L 971.6251220703125 421.1130676269531 L 973.6503295898438 415.8799133300781 L 975.675537109375 419.5533142089844 L 977.7007446289062 413.3840637207031 L 979.7259521484375 412.1660461425781 L 981.7510986328125 413.4429016113281 L 983.7763061523438 423.2614440917969 L 985.801513671875 430.7134094238281 L 987.8267211914062 427.05938720703125 L 989.8519287109375 427.7374267578125 L 991.8771362304688 424.8211975097656 L 993.90234375 426.2536315917969 L 995.9275512695312 424.5641784667969 L 997.9527587890625 432.5137023925781 L 999.9779663085938 435.6142272949219 L 1002.003173828125 444.5083923339844 L 1004.0283813476562 443.8959655761719 L 1006.0535278320312 443.9236755371094 L 1008.0787353515625 438.0489807128906 L 1010.1039428710938 436.8351745605469 L 1012.129150390625 433.7845458984375 L 1014.1543579101562 433.19244384765625 L 1016.1795654296875 427.2151794433594 L 1018.2047729492188 428.6220703125 L 1020.22998046875 429.5032043457031 L 1022.2551879882812 433.1131286621094 L 1024.2803955078125 441.8675537109375 L 1026.3055419921875 450.33721923828125 L 1028.330810546875 448.7178039550781 L 1030.35595703125 440.7037048339844 L 1032.3812255859375 433.125732421875 L 1034.4063720703125 433.03131103515625 L 1036.431640625 429.8678894042969 L 1038.456787109375 436.7628479003906 L 1040.4820556640625 440.6163330078125 L 1042.5072021484375 445.2622985839844 L 1044.5323486328125 438.0862731933594 L 1046.5576171875 437.87738037109375 L 1048.582763671875 434.145263671875 L 1050.6080322265625 435.3209228515625 L 1052.6331787109375 441.2962341308594 L 1054.658447265625 454.32696533203125 L 1056.68359375 454.8507995605469 L 1058.7088623046875 449.64666748046875 L 1060.7340087890625 443.0891418457031 L 1062.75927734375 445.45135498046875 L 1064.784423828125 447.4479675292969 L 1066.8095703125 451.4535827636719 L 1068.8348388671875 457.3187561035156 L 1070.8599853515625 456.7322082519531 L 1072.88525390625 455.2708740234375 L 1074.910400390625 450.4023742675781 L 1076.9356689453125 445.42059326171875 L 1078.9608154296875 443.81195068359375 L 1080.986083984375 444.019287109375 L 1083.01123046875 451.3617858886719 L 1085.0364990234375 456.5789489746094 L 1087.0616455078125 454.77880859375 L 1089.0869140625 452.243896484375 L 1091.112060546875 447.499267578125 L 1093.13720703125 448.08905029296875 L 1095.1624755859375 452.9954528808594 L 1097.1876220703125 459.0827941894531 L 1099.212890625 466.2475891113281 L 1101.238037109375 464.10528564453125 L 1103.2633056640625 460.2397155761719 L 1105.2884521484375 453.2613830566406 L 1107.313720703125 450.6958312988281 L 1109.3388671875 453.7821044921875 L 1111.3641357421875 458.2458190917969 L 1113.3892822265625 462.28253173828125 L 1115.41455078125 457.48016357421875 L 1117.439697265625 456.0564880371094 L 1119.46484375 457.95843505859375 L 1121.4901123046875 458.49896240234375 L 1123.5152587890625 464.7299499511719 L 1125.54052734375 467.1905212402344 L 1127.565673828125 473.2335510253906 L 1129.5909423828125 469.00311279296875 L 1131.6160888671875 464.25897216796875 L 1133.641357421875 459.95428466796875 L 1135.66650390625 459.6766662597656 L 1137.6917724609375 464.46282958984375 L 1139.7169189453125 469.5502624511719 L 1141.7420654296875 470.4091796875 L 1143.767333984375 468.076171875 L 1145.79248046875 464.8231506347656 L 1147.8177490234375 463.03265380859375 L 1149.8428955078125 461.3221130371094 L 1151.8681640625 465.171142578125 L 1153.893310546875 467.23077392578125 L 1155.9185791015625 472.05914306640625 L 1157.9437255859375 469.1889953613281 L 1159.968994140625 468.38720703125 L 1161.994140625 462.9508972167969 L 1164.0194091796875 460.10736083984375 L 1166.0445556640625 464.8976135253906 L 1168.0697021484375 468.75238037109375 L 1170.094970703125 466.0097351074219 L 1172.1201171875 456.4461364746094 L 1174.1453857421875 450.44757080078125 L 1176.1705322265625 448.02606201171875 L 1178.19580078125 450.3447265625 L 1180.220947265625 453.88623046875 L 1182.2462158203125 455.69207763671875 L 1184.2713623046875 448.93695068359375 L 1186.296630859375 444.1661682128906 L 1188.32177734375 441.6798400878906 L 1190.346923828125 441.82318115234375 L 1192.3721923828125 436.9266662597656 L 1194.3973388671875 441.3860778808594 L 1196.422607421875 446.5250549316406 L 1198.44775390625 449.2926940917969 L 1200.4730224609375 445.0857849121094 L 1202.4981689453125 441.4743957519531 L 1204.5234375 440.3977966308594 L 1206.548583984375 439.74542236328125 L 1208.5738525390625 444.1236572265625 L 1210.5989990234375 445.95477294921875 L 1212.624267578125 444.5210876464844 L 1214.6494140625 440.2734375 L 1216.674560546875 433.712646484375 L 1218.6998291015625 430.95703125 L 1220.7249755859375 428.6576232910156 L 1222.750244140625 433.2005310058594 L 1224.775390625 437.49932861328125 L 1226.8006591796875 439.34527587890625 L 1228.8258056640625 434.4196472167969 L 1230.85107421875 434.29193115234375 L 1232.876220703125 430.79669189453125 L 1234.9014892578125 436.7478942871094 L 1236.9266357421875 444.3883056640625 L 1238.951904296875 452.1015319824219 L 1240.97705078125 453.2461242675781 L 1243.002197265625 445.79986572265625 L 1245.0274658203125 442.6682434082031 L 1247.0526123046875 442.875244140625 L 1249.077880859375 443.3611755371094 L 1251.10302734375 448.7699279785156 L 1253.1282958984375 450.23480224609375 L 1255.1534423828125 447.2190856933594 L 1257.1787109375 442.2401123046875 L 1259.203857421875 440.71466064453125 L 1261.2291259765625 445.79608154296875 L 1263.2542724609375 446.37127685546875 L 1265.2794189453125 448.99517822265625 L 1267.3046875 453.8061828613281 L 1269.329833984375 455.169677734375 L 1271.3551025390625 454.1961364746094 L 1273.3802490234375 448.5931091308594 L 1275.405517578125 448.96240234375 L 1277.4306640625 445.0335388183594 L 1279.4559326171875 450.8592529296875 L 1281.4810791015625 453.122802734375 L 1283.50634765625 459.8666687011719 L 1285.531494140625 456.6547546386719 L 1287.5567626953125 454.94378662109375 L 1289.5819091796875 449.1619873046875 L 1291.6070556640625 447.00531005859375 L 1293.63232421875 455.1426086425781 L 1295.657470703125 467.1156005859375 L 1297.6827392578125 469.6344299316406 L 1299.7078857421875 461.2087707519531 L 1301.733154296875 454.8089294433594 L 1303.75830078125 455.4919128417969 L 1305.7835693359375 456.4956970214844 L 1307.8087158203125 466.2167663574219 L 1309.833984375 470.086669921875 L 1311.859130859375 467.396484375 L 1313.8843994140625 457.6558532714844 L 1315.9095458984375 453.4764709472656 L 1317.9346923828125 458.0451965332031 L 1319.9599609375 456.4306335449219 L 1321.985107421875 467.9046630859375 L 1324.0103759765625 476.1630859375 L 1326.0355224609375 477.5491943359375 L 1328.060791015625 468.11700439453125 L 1330.0859375 460.9754943847656 L 1332.1112060546875 463.9270935058594 L 1334.1363525390625 462.0509033203125" stroke-opacity="1" stroke-linejoin="bevel" stroke-miterlimit="10" stroke-dasharray="" clip-path="url(#XCugWpbBAToH)"/><path fill="none" stroke="rgb(0,0,0)" paint-order="fill" d="M 45.5 573.5 L 1395.5 573.5" stroke-opacity="1" stroke-linejoin="bevel" stroke-miterlimit="10" stroke-dasharray=""/><path fill="none" stroke="rgb(0,0,0)" paint-order="fill" d="M 285.5 579.5 L 285.5 571.5 M 534.5 579.5 L 534.5 571.5 M 781.5 579.5 L 781.5 571.5 M 1024.5 579.5 L 1024.5 571.5 M 1273.5 579.5 L 1273.5 571.5" stroke-opacity="1" stroke-linejoin="bevel" stroke-miterlimit="10" stroke-dasharray=""/><path fill="none" stroke="rgb(0,0,0)" paint-order="fill" d="" stroke-opacity="1" stroke-linejoin="bevel" stroke-miterlimit="10" stroke-dasharray=""/><text fill="rgb(68,68,68)" stroke="none" font-family="helvetica" font-size="11px" font-style="normal" font-weight="normal" text-decoration="normal" x="267.7591857910156" y="594" text-anchor="start" dominant-baseline="alphabetic" transform="matrix(1, 0, 0, 1, 0.5, 0.5)" fill-opacity="1">5/2020</text><text fill="rgb(68,68,68)" stroke="none" font-family="helvetica" font-size="11px" font-style="normal" font-weight="normal" text-decoration="normal" x="516.859130859375" y="594" text-anchor="start" dominant-baseline="alphabetic" transform="matrix(1, 0, 0, 1, 0.5, 0.5)" fill-opacity="1">9/2020</text><text fill="rgb(68,68,68)" stroke="none" font-family="helvetica" font-size="11px" font-style="normal" font-weight="normal" text-decoration="normal" x="763.933837890625" y="594" text-anchor="start" dominant-baseline="alphabetic" transform="matrix(1, 0, 0, 1, 0.5, 0.5)" fill-opacity="1">1/2021</text><text fill="rgb(68,68,68)" stroke="none" font-family="helvetica" font-size="11px" font-style="normal" font-weight="normal" text-decoration="normal" x="1006.9581298828125" y="594" text-anchor="start" dominant-baseline="alphabetic" transform="matrix(1, 0, 0, 1, 0.5, 0.5)" fill-opacity="1">5/2021</text><text fill="rgb(68,68,68)" stroke="none" font-family="helvetica" font-size="11px" font-style="normal" font-weight="normal" text-decoration="normal" x="1256.0579833984375" y="594" text-anchor="start" dominant-baseline="alphabetic" transform="matrix(1, 0, 0, 1, 0.5, 0.5)" fill-opacity="1">9/2021</text><path fill="none" stroke="rgb(0,0,0)" paint-order="fill" d="M 45.5 573.5 L 45.5 27.5" stroke-opacity="1" stroke-linejoin="bevel" stroke-miterlimit="10" stroke-dasharray=""/><path fill="none" stroke="rgb(0,0,0)" paint-order="fill" d="M 39.5 573.5 L 47.5 573.5 M 39.5 464.5 L 47.5 464.5 M 39.5 355.5 L 47.5 355.5 M 39.5 245.5 L 47.5 245.5 M 39.5 136.5 L 47.5 136.5 M 39.5 27.5 L 47.5 27.5" stroke-opacity="1" stroke-linejoin="bevel" stroke-miterlimit="10" stroke-dasharray=""/><path fill="none" stroke="rgb(0,0,0)" paint-order="fill" d="M 41.5 573.5 L 45.5 573.5 M 41.5 551.5 L 45.5 551.5 M 41.5 529.5 L 45.5 529.5 M 41.5 507.5 L 45.5 507.5 M 41.5 486.5 L 45.5 486.5 M 41.5 464.5 L 45.5 464.5 M 41.5 442.5 L 45.5 442.5 M 41.5 420.5 L 45.5 420.5 M 41.5 398.5 L 45.5 398.5 M 41.5 376.5 L 45.5 376.5 M 41.5 355.5 L 45.5 355.5 M 41.5 333.5 L 45.5 333.5 M 41.5 311.5 L 45.5 311.5 M 41.5 289.5 L 45.5 289.5 M 41.5 267.5 L 45.5 267.5 M 41.5 245.5 L 45.5 245.5 M 41.5 224.5 L 45.5 224.5 M 41.5 202.5 L 45.5 202.5 M 41.5 180.5 L 45.5 180.5 M 41.5 158.5 L 45.5 158.5 M 41.5 136.5 L 45.5 136.5 M 41.5 114.5 L 45.5 114.5 M 41.5 93.5 L 45.5 93.5 M 41.5 71.5 L 45.5 71.5 M 41.5 49.5 L 45.5 49.5 M 41.5 27.5 L 45.5 27.5" stroke-opacity="1" stroke-linejoin="bevel" stroke-miterlimit="10" stroke-dasharray=""/><text fill="rgb(68,68,68)" stroke="none" font-family="helvetica" font-size="11px" font-style="normal" font-weight="normal" text-decoration="normal" x="15.04541015625" y="576.5" text-anchor="start" dominant-baseline="alphabetic" transform="matrix(1, 0, 0, 1, 0.5, 0.5)" fill-opacity="1">0 %</text><text fill="rgb(68,68,68)" stroke="none" font-family="helvetica" font-size="11px" font-style="normal" font-weight="normal" text-decoration="normal" x="8.927734375" y="467.29998779296875" text-anchor="start" dominant-baseline="alphabetic" transform="matrix(1, 0, 0, 1, 0.5, 0.5)" fill-opacity="1">20 %</text><text fill="rgb(68,68,68)" stroke="none" font-family="helvetica" font-size="11px" font-style="normal" font-weight="normal" text-decoration="normal" x="8.927734375" y="358.1000061035156" text-anchor="start" dominant-baseline="alphabetic" transform="matrix(1, 0, 0, 1, 0.5, 0.5)" fill-opacity="1">40 %</text><text fill="rgb(68,68,68)" stroke="none" font-family="helvetica" font-size="11px" font-style="normal" font-weight="normal" text-decoration="normal" x="8.927734375" y="248.89999389648438" text-anchor="start" dominant-baseline="alphabetic" transform="matrix(1, 0, 0, 1, 0.5, 0.5)" fill-opacity="1">60 %</text><text fill="rgb(68,68,68)" stroke="none" font-family="helvetica" font-size="11px" font-style="normal" font-weight="normal" text-decoration="normal" x="8.927734375" y="139.6999969482422" text-anchor="start" dominant-baseline="alphabetic" transform="matrix(1, 0, 0, 1, 0.5, 0.5)" fill-opacity="1">80 %</text><text fill="rgb(68,68,68)" stroke="none" font-family="helvetica" font-size="11px" font-style="normal" font-weight="normal" text-decoration="normal" x="2.81005859375" y="30.5" text-anchor="start" dominant-baseline="alphabetic" transform="matrix(1, 0, 0, 1, 0.5, 0.5)" fill-opacity="1">100 %</text><text fill="rgb(68,68,68)" stroke="none" font-family="helvetica" font-size="13px" font-style="normal" font-weight="bold" text-decoration="normal" x="45" y="19" text-anchor="start" dominant-baseline="alphabetic" transform="matrix(1, 0, 0, 1, 0.5, 0.5)" fill-opacity="1">Coronavirus National Coverage</text></svg>