<svg version="1.1" xmlns="http://www.w3.org/2000/svg" xmlns:xlink="http://www.w3.org/1999/xlink" width="1400" height="600" style="width: 1400px; height: 600px;"><defs><clipPath id="GasfqeuFIJFI"><path fill="none" stroke="none" d=" M 45 28 L 1395 28 L 1395 576 L 45 576 L 45 28 Z"/></clipPath><clipPath id="kTOaNhTputDi"><path fill="none" stroke="none" d=" M 45 28 L 1395 28 L 1395 576 L 45 576 L 45 28 Z"/></clipPath><clipPath id="LtTTHFrxRolh"><path fill="none" stroke="none" d=" M 45 28 L 1395 28 L 1395 576 L 45 576 L 45 28 Z"/></clipPath><clipPath id="SxTzQmkKODsB"><path fill="none" stroke="none" d=" M 45 28 L 1395 28 L 1395 576 L 45 576 L 45 28 Z"/></clipPath></defs><g><g transform="scale(1,1) translate(0.5,0.5)"><rect fill="#FFFFFF" stroke="none" x="0" y="0" width="1400" height="600"/><rect fill="#ffffff" stroke="none" x="0" y="0" width="1400" height="600"/><rect fill="#FFFFFF" stroke="none" x="45" y="28" width="1350" height="548"/><rect fill="#ffffff" stroke="none" x="45" y="28" width="1350" height="548"/><g clip-path="url(#GasfqeuFIJFI)"><g><g/></g></g><g clip-path="url(#kTOaNhTputDi)"><g><g/></g></g><g clip-path="url(#LtTTHFrxRolh)"><g><g><path fill="none" stroke="none"/><path fill="none" stroke="teal" paint-order="fill stroke markers" d=" M 94.73071951745078 NaN" stroke-linejoin="bevel" stroke-miterlimit="10"/><path fill="none" stroke="none"/><path fill="none" stroke="teal" paint-order="fill stroke markers" d=" M 106.36363636364695 524.2284611884976 L 112.18009478673048 518.884425255804 L 117.99655320982856 514.6457665285399 L 123.81301163292665 516.7219971380351 L 129.62947005601018 515.6926947066314 L 135.44592847910826 518.7672945069814 L 141.26238690220634 524.4801169225807 L 147.07884532528988 530.451000938927 L 152.89530374838796 528.8096793761861 L 158.71176217148604 524.3752287479671 L 164.52822059456958 522.1748238109413 L 170.34467901766766 522.2595707965376 L 176.16113744076574 514.4787431449295 L 181.97759586386383 518.6000138620758 L 187.79405428694736 520.3676660992861 L 193.61051271004544 527.9010282402708 L 199.42697113314352 528.5382712201542 L 205.24342955622706 531.4528679101116 L 211.05988797932514 532.5223915120093 L 216.87634640242322 534.0231480357248 L 222.69280482550676 531.9152474304673 L 228.50926324860484 522.6692158920616 L 234.32572167170292 504.8749653031044 L 240.14218009478645 482.35875477769844 L 245.95863851788454 464.0570957858645 L 251.77509694098262 444.8771850660538 L 257.59155536406615 443.8580018686839 L 263.40801378716424 445.79455093776096 L 269.2244722102623 443.12484566386854 L 275.04093063334585 430.1925953506054 L 280.85738905644394 420.5681299706164 L 286.673847479542 419.4517345662774 L 292.4903059026401 406.8296820091011 L 298.30676432572363 400.9299547078364 L 304.1232227488217 391.5584070262415 L 309.9396811719198 377.73063212902883 L 315.75613959500333 346.368281528947 L 321.5725980181014 305.5044050768014 L 327.3890564411995 256.7285918835123 L 333.20551486428303 217.1540857132655 L 339.0219732873811 190.3402103904872 L 344.8384317104792 189.48619958759753 L 350.65489013356273 186.99496914726643 L 356.4713485566608 185.5670537786317 L 362.2878069797589 182.6404082674831 L 368.10426540284243 175.35664830908263 L 373.9207238259405 170.02713289540412 L 379.7371822490386 169.27808726991594 L 385.5536406721367 175.55017443947594 L 391.3700990952202 175.3174751150172 L 397.1865575183183 169.61564083565588 L 403.0030159414164 165.01511833110578 L 408.8194743644999 165.42645958408798 L 414.635932787598 165.40954536652367 L 420.4523912106961 168.89680385266104 L 426.2688496337796 174.9863199421178 L 432.0853080568777 182.9056623516678 L 437.9017664799758 193.78502310291236 L 443.7182249030593 196.85432187986413 L 449.5346833261574 202.38087481164678 L 455.3511417492555 196.81055584185657 L 461.167600172339 202.87776884350575 L 466.9840585954371 198.19069903727194 L 472.8005170185352 197.580239585504 L 478.6169754416187 188.15436378301524 L 484.4334338647168 192.92965108371158 L 490.2498922878149 195.70227165290703 L 496.06635071091296 201.39451557504486 L 501.8828091339965 214.61784671202736 L 507.6992675570946 226.34786155959432 L 513.5157259801927 227.81487797997062 L 519.3321844032762 211.40204202265 L 525.1486428263743 204.34642273084341 L 530.9651012494724 205.49991996247712 L 536.7815596725559 212.60217132514418 L 542.598018095654 225.62181978713443 L 548.414476518752 234.61238255787129 L 554.2309349418356 239.10991995059806 L 560.0473933649337 227.47116807014976 L 565.8638517880318 223.25185091919633 L 571.6803102111153 224.11678629009253 L 577.4967686342134 227.83969663041097 L 583.3132270573115 246.50975986554596 L 589.129685480395 250.4041058966518 L 594.9461439034931 249.43504839527935 L 600.7626023265911 229.25504976165269 L 606.5790607496892 221.6653440017762 L 612.3955191727728 220.72797784155262 L 618.2119775958708 227.91843336291396 L 624.0284360189689 239.38959153326277 L 629.8448944420525 245.26743773226968 L 635.6613528651505 245.30994239591848 L 641.4778112882486 237.36266174311714 L 647.2942697113322 236.44641107689296 L 653.1107281344302 245.65260703466708 L 658.9271865575283 258.1796340961926 L 664.7436449806119 265.1582974079747 L 670.56010340371 261.7119590591879 L 676.376561826808 257.07246490665034 L 682.1930202498916 249.21526369123268 L 688.0094786729896 244.42155225607127 L 693.8259370960877 240.65571641947116 L 699.6423955191713 242.5045383289994 L 705.4588539422693 246.30094074423153 L 711.2753123653674 251.38075778893062 L 717.0917707884655 253.24686977381373 L 722.908229211549 250.6639816139022 L 728.7246876346471 247.6969859358581 L 734.5411460577452 252.74056233194347 L 740.3576044808287 258.6368642668286 L 746.1740629039268 261.45231070402514 L 751.9905213270249 261.4900278878957 L 757.8069797501084 261.85595813066817 L 763.6234381732065 267.17325589314663 L 769.4398965963046 274.0625722913736 L 775.2563550193881 279.8355252123967 L 781.0728134424862 292.7409586678302 L 786.8892718655843 315.3810649029251 L 792.7057302886678 339.38143668721716 L 798.5221887117659 352.3313843485572 L 804.338647134864 354.185404243711 L 810.1551055579475 348.4593739837944 L 815.9715639810456 344.8606472953195 L 821.7880224041437 341.338994273739 L 827.6044808272418 351.8789498076263 L 833.4209392503253 361.3671525221848 L 839.2373976734234 358.83141238008454 L 845.0538560965215 350.65504924662287 L 850.870314519605 344.39656476861734 L 856.6867729427031 342.8274008877492 L 862.5032313658012 339.5457646401254 L 868.3196897888847 338.7809718595639 L 874.1361482119828 346.6330108842319 L 879.9526066350809 346.8605645310624 L 885.7690650581644 341.38299229887116 L 891.5855234812625 336.1433736472929 L 897.4019819043606 339.6322423503656 L 903.2184403274441 343.0302784967621 L 909.0348987505422 341.2490017919073 L 914.8513571736403 337.2971236025156 L 920.6678155967238 331.210486415738 L 926.4842740198219 329.55905473767166 L 932.30073244292 328.44069902712533 L 938.1171908660181 326.9648234217647 L 943.9336492891016 319.22452337493445 L 949.7501077121997 325.4782421215409 L 955.5665661352978 332.6908128672978 L 961.3830245583813 337.95741500012764 L 967.1994829814794 326.81532969459147 L 973.0159414045775 323.0360461369411 L 978.832399827661 325.3758775744632 L 984.6488582507591 330.3135349317628 L 990.4653166738572 339.45142511982556 L 996.2817750969407 348.79226384149496 L 1002.0982335200388 346.581531900175 L 1007.9146919431369 335.5907555425058 L 1013.7311503662204 325.70181289634866 L 1019.5476087893185 324.7979337522612 L 1025.3640672124166 328.7219885368671 L 1031.1805256355 323.9512987104523 L 1036.9969840585982 321.941439731365 L 1042.8134424816963 317.3774597628642 L 1048.6299009047943 319.06293227512873 L 1054.4463593278779 321.11218565158435 L 1060.262817750976 319.3534183064202 L 1066.079276174074 323.6086840379893 L 1071.8957345971576 331.64536167635066 L 1077.7121930202557 338.42314942377925 L 1083.5286514433537 331.83426503276246 L 1089.3451098664373 326.2736257404309 L 1095.1615682895354 329.84061208008325 L 1100.9780267126334 333.5093699412198 L 1106.794485135717 326.95406775494433 L 1112.610943558815 305.56380479663926 L 1118.4274019819131 293.07939923404035 L 1124.2438604049967 272.0942237714231 L 1130.0603188280948 275.6932792517582 L 1135.8767772511928 292.77513198973594 L 1141.693235674291 319.33123038731486 L 1147.5096940973744 335.34935038668004 L 1153.3261525204725 336.07074974986 L 1159.1426109435706 340.83244999440683 L 1164.9590693666541 335.32089679636186 L 1170.7755277897522 328.4231237652972 L 1176.5919862128503 304.2603900125861 L 1182.4084446359338 294.0409883346185 L 1188.224903059032 297.4525728758734 L 1194.04136148213 321.92021897428856 L 1199.8578199052135 339.27182342326404 L 1205.6742783283116 341.9259503486238 L 1211.4907367514097 338.6918718051278 L 1217.3071951744932 338.75792521345784 L 1223.1236535975913 339.43368673502823 L 1228.9401120206894 349.1222133926566 L 1234.756570443773 351.65153482447437 L 1240.573028866871 359.83288392662075 L 1246.389487289969 353.89623934568544 L 1252.2059457130672 353.37081355704737 L 1258.0224041361507 353.0281959083578 L 1263.8388625592488 360.8557997715568 L 1269.655320982347 362.2771857456 L 1275.4717794054304 367.61369598872307 L 1281.2882378285285 368.4246373099686 L 1287.1046962516266 365.17054969451317 L 1292.9211546747101 358.2625516323674 L 1298.7376130978082 360.84589667229557 L 1304.5540715209063 370.15373753965497 L 1310.3705299439898 376.0394876425305 L 1316.186988367088 383.3612088330811 L 1322.003446790186 387.778393648309 L 1327.8199052132695 386.8044947464601 L 1333.6363636363676 383.987770499308" stroke-linejoin="bevel" stroke-miterlimit="10"/></g></g></g><g><g fill="#444444"><path fill="" stroke="none" d=""/><g transform="translate(45,23)"><path fill="none" stroke="none"/><text fill="" stroke="none" font-family="helvetica" font-size="13px" font-style="normal" font-weight="bold" text-decoration="normal" x="0" y="0" text-anchor="start" dominant-baseline="text-after-edge">Coronavirus National Coverage</text></g></g></g><g><g fill="#444444"><path fill="none" stroke="black" paint-order="fill stroke markers" d=" M 45 576 L 1395 576" stroke-linejoin="bevel" stroke-miterlimit="10"/><path fill="none" stroke="black" paint-order="fill stroke markers" d=" M 95 582 L 95 574" stroke-linejoin="bevel" stroke-miterlimit="10"/><path fill="none" stroke="black" paint-order="fill stroke markers" d=" M 263 582 L 263 574" stroke-linejoin="bevel" stroke-miterlimit="10"/><path fill="none" stroke="black" paint-order="fill stroke markers" d=" M 444 582 L 444 574" stroke-linejoin="bevel" stroke-miterlimit="10"/><path fill="none" stroke="black" paint-order="fill stroke markers" d=" M 618 582 L 618 574" stroke-linejoin="bevel" stroke-miterlimit="10"/><path fill="none" stroke="black" paint-order="fill stroke markers" d=" M 799 582 L 799 574" stroke-linejoin="bevel" stroke-miterlimit="10"/><path fill="none" stroke="black" paint-order="fill stroke markers" d=" M 973 582 L 973 574" stroke-linejoin="bevel" stroke-miterlimit="10"/><path fill="none" stroke="black" paint-order="fill stroke markers" d=" M 1153 582 L 1153 574" stroke-linejoin="bevel" stroke-miterlimit="10"/><path fill="" stroke="black" paint-order="fill stroke markers" d=" M 1334 582 L 1334 574" stroke-linejoin="bevel" stroke-miterlimit="10"/><g transform="translate(95,587) rotate(0,0,0)"><text fill="" stroke="none" font-family="helvetica" font-size="11px" font-style="normal" font-weight="normal" text-decoration="normal" x="0" y="0" text-anchor="middle" dominant-baseline="hanging">2/2020</text><g transform="rotate(0,0,0) translate(-95,-587) translate(263,587) rotate(0,0,0)"><text fill="" stroke="none" font-family="helvetica" font-size="11px" font-style="normal" font-weight="normal" text-decoration="normal" x="0" y="0" text-anchor="middle" dominant-baseline="hanging">3/2020</text><g transform="rotate(0,0,0) translate(-263,-587) translate(444,587) rotate(0,0,0)"><text fill="" stroke="none" font-family="helvetica" font-size="11px" font-style="normal" font-weight="normal" text-decoration="normal" x="0" y="0" text-anchor="middle" dominant-baseline="hanging">4/2020</text><g transform="rotate(0,0,0) translate(-444,-587) translate(618,587) rotate(0,0,0)"><text fill="" stroke="none" font-family="helvetica" font-size="11px" font-style="normal" font-weight="normal" text-decoration="normal" x="0" y="0" text-anchor="middle" dominant-baseline="hanging">5/2020</text><g transform="rotate(0,0,0) translate(-618,-587) translate(799,587) rotate(0,0,0)"><text fill="" stroke="none" font-family="helvetica" font-size="11px" font-style="normal" font-weight="normal" text-decoration="normal" x="0" y="0" text-anchor="middle" dominant-baseline="hanging">6/2020</text><g transform="rotate(0,0,0) translate(-799,-587) translate(973,587) rotate(0,0,0)"><text fill="" stroke="none" font-family="helvetica" font-size="11px" font-style="normal" font-weight="normal" text-decoration="normal" x="0" y="0" text-anchor="middle" dominant-baseline="hanging">7/2020</text><g transform="rotate(0,0,0) translate(-973,-587) translate(1153,587) rotate(0,0,0)"><text fill="" stroke="none" font-family="helvetica" font-size="11px" font-style="normal" font-weight="normal" text-decoration="normal" x="0" y="0" text-anchor="middle" dominant-baseline="hanging">8/2020</text><g transform="rotate(0,0,0) translate(-1153,-587) translate(1334,587) rotate(0,0,0)"><text fill="" stroke="none" font-family="helvetica" font-size="11px" font-style="normal" font-weight="normal" text-decoration="normal" x="0" y="0" text-anchor="middle" dominant-baseline="hanging">9/2020</text><g transform="rotate(0,0,0) translate(-1334,-587)"/></g></g></g></g></g></g></g></g></g></g><g><g fill="#444444"><path fill="none" stroke="black" paint-order="fill stroke markers" d=" M 45 576 L 45 28" stroke-linejoin="bevel" stroke-miterlimit="10"/><path fill="none" stroke="black" paint-order="fill stroke markers" d=" M 39 576 L 47 576" stroke-linejoin="bevel" stroke-miterlimit="10"/><path fill="none" stroke="black" paint-order="fill stroke markers" d=" M 39 466 L 47 466" stroke-linejoin="bevel" stroke-miterlimit="10"/><path fill="none" stroke="black" paint-order="fill stroke markers" d=" M 39 357 L 47 357" stroke-linejoin="bevel" stroke-miterlimit="10"/><path fill="none" stroke="black" paint-order="fill stroke markers" d=" M 39 247 L 47 247" stroke-linejoin="bevel" stroke-miterlimit="10"/><path fill="none" stroke="black" paint-order="fill stroke markers" d=" M 39 138 L 47 138" stroke-linejoin="bevel" stroke-miterlimit="10"/><path fill="none" stroke="black" paint-order="fill stroke markers" d=" M 39 28 L 47 28" stroke-linejoin="bevel" stroke-miterlimit="10"/><path fill="none" stroke="black" paint-order="fill stroke markers" d=" M 41 576 L 45 576" stroke-linejoin="bevel" stroke-miterlimit="10"/><path fill="none" stroke="black" paint-order="fill stroke markers" d=" M 41 554 L 45 554" stroke-linejoin="bevel" stroke-miterlimit="10"/><path fill="none" stroke="black" paint-order="fill stroke markers" d=" M 41 532 L 45 532" stroke-linejoin="bevel" stroke-miterlimit="10"/><path fill="none" stroke="black" paint-order="fill stroke markers" d=" M 41 510 L 45 510" stroke-linejoin="bevel" stroke-miterlimit="10"/><path fill="none" stroke="black" paint-order="fill stroke markers" d=" M 41 488 L 45 488" stroke-linejoin="bevel" stroke-miterlimit="10"/><path fill="none" stroke="black" paint-order="fill stroke markers" d=" M 41 466 L 45 466" stroke-linejoin="bevel" stroke-miterlimit="10"/><path fill="none" stroke="black" paint-order="fill stroke markers" d=" M 41 444 L 45 444" stroke-linejoin="bevel" stroke-miterlimit="10"/><path fill="none" stroke="black" paint-order="fill stroke markers" d=" M 41 423 L 45 423" stroke-linejoin="bevel" stroke-miterlimit="10"/><path fill="none" stroke="black" paint-order="fill stroke markers" d=" M 41 401 L 45 401" stroke-linejoin="bevel" stroke-miterlimit="10"/><path fill="none" stroke="black" paint-order="fill stroke markers" d=" M 41 379 L 45 379" stroke-linejoin="bevel" stroke-miterlimit="10"/><path fill="none" stroke="black" paint-order="fill stroke markers" d=" M 41 357 L 45 357" stroke-linejoin="bevel" stroke-miterlimit="10"/><path fill="none" stroke="black" paint-order="fill stroke markers" d=" M 41 335 L 45 335" stroke-linejoin="bevel" stroke-miterlimit="10"/><path fill="none" stroke="black" paint-order="fill stroke markers" d=" M 41 313 L 45 313" stroke-linejoin="bevel" stroke-miterlimit="10"/><path fill="none" stroke="black" paint-order="fill stroke markers" d=" M 41 291 L 45 291" stroke-linejoin="bevel" stroke-miterlimit="10"/><path fill="none" stroke="black" paint-order="fill stroke markers" d=" M 41 269 L 45 269" stroke-linejoin="bevel" stroke-miterlimit="10"/><path fill="none" stroke="black" paint-order="fill stroke markers" d=" M 41 247 L 45 247" stroke-linejoin="bevel" stroke-miterlimit="10"/><path fill="none" stroke="black" paint-order="fill stroke markers" d=" M 41 225 L 45 225" stroke-linejoin="bevel" stroke-miterlimit="10"/><path fill="none" stroke="black" paint-order="fill stroke markers" d=" M 41 203 L 45 203" stroke-linejoin="bevel" stroke-miterlimit="10"/><path fill="none" stroke="black" paint-order="fill stroke markers" d=" M 41 181 L 45 181" stroke-linejoin="bevel" stroke-miterlimit="10"/><path fill="none" stroke="black" paint-order="fill stroke markers" d=" M 41 160 L 45 160" stroke-linejoin="bevel" stroke-miterlimit="10"/><path fill="none" stroke="black" paint-order="fill stroke markers" d=" M 41 138 L 45 138" stroke-linejoin="bevel" stroke-miterlimit="10"/><path fill="none" stroke="black" paint-order="fill stroke markers" d=" M 41 116 L 45 116" stroke-linejoin="bevel" stroke-miterlimit="10"/><path fill="none" stroke="black" paint-order="fill stroke markers" d=" M 41 94 L 45 94" stroke-linejoin="bevel" stroke-miterlimit="10"/><path fill="none" stroke="black" paint-order="fill stroke markers" d=" M 41 72 L 45 72" stroke-linejoin="bevel" stroke-miterlimit="10"/><path fill="none" stroke="black" paint-order="fill stroke markers" d=" M 41 50 L 45 50" stroke-linejoin="bevel" stroke-miterlimit="10"/><path fill="" stroke="black" paint-order="fill stroke markers" d=" M 41 28 L 45 28" stroke-linejoin="bevel" stroke-miterlimit="10"/><g transform="translate(34,576) rotate(0,0,0)"><text fill="" stroke="none" font-family="helvetica" font-size="11px" font-style="normal" font-weight="normal" text-decoration="normal" x="0" y="0" text-anchor="end" dominant-baseline="central">0 %</text><g transform="rotate(0,0,0) translate(-34,-576) translate(34,466) rotate(0,0,0)"><text fill="" stroke="none" font-family="helvetica" font-size="11px" font-style="normal" font-weight="normal" text-decoration="normal" x="0" y="0" text-anchor="end" dominant-baseline="central">20 %</text><g transform="rotate(0,0,0) translate(-34,-466) translate(34,357) rotate(0,0,0)"><text fill="" stroke="none" font-family="helvetica" font-size="11px" font-style="normal" font-weight="normal" text-decoration="normal" x="0" y="0" text-anchor="end" dominant-baseline="central">40 %</text><g transform="rotate(0,0,0) translate(-34,-357) translate(34,247) rotate(0,0,0)"><text fill="" stroke="none" font-family="helvetica" font-size="11px" font-style="normal" font-weight="normal" text-decoration="normal" x="0" y="0" text-anchor="end" dominant-baseline="central">60 %</text><g transform="rotate(0,0,0) translate(-34,-247) translate(34,138) rotate(0,0,0)"><text fill="" stroke="none" font-family="helvetica" font-size="11px" font-style="normal" font-weight="normal" text-decoration="normal" x="0" y="0" text-anchor="end" dominant-baseline="central">80 %</text><g transform="rotate(0,0,0) translate(-34,-138) translate(34,28) rotate(0,0,0)"><text fill="" stroke="none" font-family="helvetica" font-size="11px" font-style="normal" font-weight="normal" text-decoration="normal" x="0" y="0" text-anchor="end" dominant-baseline="central">100 %</text><g transform="rotate(0,0,0) translate(-34,-28)"/></g></g></g></g></g></g></g></g><g clip-path="url(#SxTzQmkKODsB)"><g/></g></g></g></svg>