<?xml version="1.0" encoding="utf-8"?>
<!-- Generator: Adobe Illustrator 24.3.0, SVG Export Plug-In . SVG Version: 6.00 Build 0)  -->
<svg version="1.1" xmlns="http://www.w3.org/2000/svg" xmlns:xlink="http://www.w3.org/1999/xlink" x="0px" y="0px"
	 viewBox="0 0 500 500" style="enable-background:new 0 0 500 500;" xml:space="preserve">
<style type="text/css">
	.st0{fill:#FFFFFF;}
	.st1{clip-path:url(#SVGID_6_);}
	.st2{fill:none;}
	.st3{fill:none;stroke:#008080;stroke-width:2;stroke-linejoin:bevel;stroke-miterlimit:10;}
	.st4{clip-path:url(#SVGID_8_);}
	.st5{fill:none;stroke:#800080;stroke-width:2;stroke-linejoin:bevel;stroke-miterlimit:10;}
	.st6{fill:#444444;}
	.st7{font-family:'Helvetica-Bold';}
	.st8{font-size:13px;}
	.st9{fill:none;stroke:#000000;stroke-linejoin:bevel;stroke-miterlimit:10;}
	.st10{fill:#444444;stroke:#000000;stroke-linejoin:bevel;stroke-miterlimit:10;}
	.st11{font-family:'Helvetica';}
	.st12{font-size:11px;}
	.st13{fill:#008080;}
	.st14{font-family:'Futura-Medium';}
	.st15{font-size:16px;}
	.st16{fill:#800080;}
</style>
<g id="Layer_1">
	<g transform="scale(1,1) translate(0.5,0.5)">
		<rect class="st0" width="500" height="500"/>
		<rect x="5" y="5" class="st0" width="490" height="443"/>
		<rect x="5" y="5" class="st0" width="490" height="443"/>
		<g>
			<defs>
				<rect id="SVGID_1_" x="5" y="5" width="490" height="443"/>
			</defs>
			<clipPath id="SVGID_2_">
				<use xlink:href="#SVGID_1_"  style="overflow:visible;"/>
			</clipPath>
		</g>
		<g>
			<defs>
				<rect id="SVGID_3_" x="5" y="5" width="490" height="443"/>
			</defs>
			<clipPath id="SVGID_4_">
				<use xlink:href="#SVGID_3_"  style="overflow:visible;"/>
			</clipPath>
		</g>
		<g>
			<defs>
				<rect id="SVGID_5_" x="5" y="5" width="490" height="443"/>
			</defs>
			<clipPath id="SVGID_6_">
				<use xlink:href="#SVGID_5_"  style="overflow:visible;"/>
			</clipPath>
			<g class="st1">
				<g>
					<g>
						<path class="st2" d="M5,5"/>
						<path class="st3" d="M27.3,153.3l3.2,14.7l3.2,19.8l3.2,12l3.2,8.7l3.2-16l3.2-15.6l3.2-3.8l3.2,9.8l3.2,18.6l3.2,3.5l3.2,4.5
							l3.2,6.8l3.2-2.3l3.2-0.5l3.2-10.1l3.2,2.7l3.2,8.5l3.2,13.8l3.2-8.6l3.2-20l3.2-6.6l3.2,11.1l3.2,16.2l3.2,15.1l3.2,9
							l3.2-12.6l3.2-38l3.2-6.3l3.2,14.1l3.2,31.1l3.2,6.4l3.2,9.2l3.2-9.5l3.2-0.6l3.2,1.7l3.2,7.2l3.2,3.2l3.2,4.2l3.2,8.8
							l3.2-24.1l3.2-18.5l3.2-22l3.2,25.5l3.2,11.7l3.2,24.3l3.2,9.7l3.2-3.6l3.2,6.3l3.2,1.5l3.2,29.5l3.2,13.3l3.2,8.2l3.2-1.6
							l3.2-18.1l3.2-12.5l3.2-5.6l3.2,16.4l3.2,18.5l3.2-5l3.2-3.3l3.2-12.2l3.2,5l3.2,3.7l3.2,6.4l3.2,10.3l3.2,0.1l3.2,5.3
							l3.2-20.2l3.2-23.8l3.2-14.9l3.2,9.3l3.2,21.7l3.2,1.9l3.2,2l3.2-3.2l3.2-9.8l3.2-1l3.2-0.7l3.2,9.5l3.2,5.4l3.2-5.5l3.2-13.6
							l3.2-20.8l3.2-0.5l3.2,9.4l3.2,20.3l3.2,10.3l3.2,13.7l3.2-19.8l3.2-31.8l3.2-7.5l3.2,15.2l3.2,30.6l3.2,5.1l3.2,4.5l3.2-22.7
							l3.2-18l3.2-2.1l3.2,26.4l3.2,17.7l3.2-2.2l3.2-8.6l3.2,12.7l3.2-3.6l3.2,9.9l3.2-7.4l3.2,13.5l3.2-6.4l3.2-0.5l3.2-9.6
							l3.2-16.6l3.2,2.2l3.2,6.8l3.2,23l3.2,3.5l3.2,5.5l3.2-6.5l3.2-10.8l3.2-1.4l3.2-3l3.2,10.6l3.2,2.1l3.2,16.6L419,338l3.2-14
							l3.2-14.2l3.2,8.3l3.2,15l3.2,9.5l3.2,7.1l3.2-12.5l3.2-11l3.2-13.9l3.2,0.8l3.2,6.2l3.2,5.1l3.2,0.9l3.2,3l3.2-8.7l3.2,12.3
							l3.2,2"/>
					</g>
				</g>
			</g>
		</g>
		<g>
			<defs>
				<rect id="SVGID_7_" x="5" y="5" width="490" height="443"/>
			</defs>
			<clipPath id="SVGID_8_">
				<use xlink:href="#SVGID_7_"  style="overflow:visible;"/>
			</clipPath>
			<g class="st4">
				<g>
					<g>
						<path class="st2" d="M5,5"/>
						<path class="st2" d="M5,5"/>
						<path class="st2" d="M5,5"/>
						<path class="st5" d="M33.6,352.4l3.2-18.7l3.2-19.9l3.2-4.6l3.2,12l3.2,47.8l3.2-24.8l3.2-0.9l3.2-66.2l3.2-39.2l3.2-13.6
							l3.2,32l3.2,73.6l3.2,11.6l3.2-8l3.2-8.9l3.2-5.7l3.2,0.2l3.2,2.5l3.2,23.8l3.2,16.5l3.2,1.5l3.2-15l3.2-9.2l3.2,7.4l3.2,13.9
							l3.2,20.3l3.2,11.6l3.2-2.5l3.2-14.5l3.2-7.8l3.2-7.3l3.2,5.8l3.2,4.2l3.2,13.7l3.2,0.7l3.2-1.5l3.2,1.5l3.2,5.8l3.2,2.2
							l3.2,4.5l3.2,7.5l3.2,10.4l3.2-1.7l3.2-4.2l3.2-5.6l3.2,0.2l3.2-69.1l3.2,9.2l3.2,5l3.2,72.2l3.2-2.9l3.2-3.1l3.2,3.6l3.2,6.5
							l3.2,6.7l3.2,0.8l3.2-6.9l3.2-2.8l3.2-1.5l3.2,6.5l3.2,6.5l3.2,3l3.2-1.2l3.2-3.9l3.2-0.7l3.2-0.4l3.2,3.1l3.2,1.7l3.2,1.2
							l3.2-1l3.2-1.6l3.2-0.1l3.2-4.3l3.2,0l3.2,2.8l3.2,5.5l3.2,4.8l3.2-7.6l3.2-3.8l3.2-4.5l3.2,6.9l3.2,2.7l3.2,0.2l3.2-2.7
							l3.2-2.8l3.2-0.3l3.2-0.5l3.2,2.1l3.2-0.4l3.2-0.3l3.2-0.4l3.2-0.1l3.2,0.1l3.2-3l3.2-1.3l3.2,0.9l3.2,2.5l3.2,0.2l3.2-1.5
							l3.2-2l3.2,0.1l3.2-0.9l3.2,1l3.2,0.6l3.2-2.8l3.2,6.2l3.2-14.4l3.2,1.6l3.2-9l3.2,15.6l3.2-2.5l3.2-0.5l3.2-0.7l3.2,2.8
							l3.2,0.4l3.2-2.1l3.2,3l3.2,0.6l3.2,7l3.2,5.9l3.2-9.3L419,416l3.2-8.4l3.2,12.3l3.2,9.6l3.2,0.9l3.2-1.4l3.2-5.7l3.2,4.5
							l3.2,6.7l3.2-3.7l3.2-5.4l3.2-7.2l3.2,6.3l3.2-1.3l3.2-2.4l3.2,3.6l3.2,3.3l3.2,1.9"/>
					</g>
				</g>
			</g>
		</g>
		<g>
			<g>
				<path class="st5" d="M0,0"/>
				<g transform="translate(5,495)">
					<path class="st5" d="M0,0"/>
					<text class="st6 st7 st8">Massachusetts</text>
				</g>
			</g>
		</g>
		<g>
			<g>
				<path class="st9" d="M5,448h490"/>
				<path class="st9" d="M84,454v-8"/>
				<path class="st9" d="M182,454v-8"/>
				<path class="st9" d="M277,454v-8"/>
				<path class="st9" d="M375,454v-8"/>
				<path class="st10" d="M473,454v-8"/>
				<g transform="translate(84,459) rotate(0,0,0)">
					<text transform="matrix(1 0 0 1 -16.8223 9.4451)" class="st6 st11 st12">5/2020</text>
					<g transform="rotate(0,0,0) translate(-84,-459) translate(182,459) rotate(0,0,0)">
						<text transform="matrix(1 0 0 1 -16.8223 9.4451)" class="st6 st11 st12">6/2020</text>
						<g transform="rotate(0,0,0) translate(-182,-459) translate(277,459) rotate(0,0,0)">
							<text transform="matrix(1 0 0 1 -16.8223 9.4451)" class="st6 st11 st12">7/2020</text>
							<g transform="rotate(0,0,0) translate(-277,-459) translate(375,459) rotate(0,0,0)">
								<text transform="matrix(1 0 0 1 -16.8223 9.4451)" class="st6 st11 st12">8/2020</text>
								<g transform="rotate(0,0,0) translate(-375,-459) translate(473,459) rotate(0,0,0)">
									<text transform="matrix(1 0 0 1 -16.8223 9.4451)" class="st6 st11 st12">9/2020</text>
									<g transform="rotate(0,0,0) translate(-473,-459)">
									</g>
								</g>
							</g>
						</g>
					</g>
				</g>
			</g>
		</g>
		<g>
			<defs>
				<rect id="SVGID_9_" x="5" y="5" width="490" height="443"/>
			</defs>
			<clipPath id="SVGID_10_">
				<use xlink:href="#SVGID_9_"  style="overflow:visible;"/>
			</clipPath>
		</g>
	</g>
</g>
<g id="Layer_2">
	<text transform="matrix(1 0 0 1 367.7109 286.7891)" class="st13 st14 st15">media attention</text>
	<text transform="matrix(1 0 0 1 350.1953 392.7969)" class="st16 st14 st15">covid19 incidence</text>
</g>
</svg>
