<svg version="1.1" xmlns="http://www.w3.org/2000/svg" width="500" height="500"><defs><clipPath id="HzeQPAsODWtP"><path fill="none" stroke="none" d="M 5.5 5.5 L 495.5 5.5 L 495.5 446.5 L 5.5 446.5 L 5.5 5.5"/></clipPath><clipPath id="SsKptTJDxGgr"><path fill="none" stroke="none" d="M 5.5 5.5 L 495.5 5.5 L 495.5 446.5 L 5.5 446.5 L 5.5 5.5"/></clipPath><clipPath id="TWTAMwqNaTDf"><path fill="none" stroke="none" d="M 5.5 5.5 L 495.5 5.5 L 495.5 446.5 L 5.5 446.5 L 5.5 5.5"/></clipPath><clipPath id="fxTweTQdAbOI"><path fill="none" stroke="none" d="M 5.5 5.5 L 495.5 5.5 L 495.5 446.5 L 5.5 446.5 L 5.5 5.5"/></clipPath><clipPath id="wTDXERapmWEV"><path fill="none" stroke="none" d="M 5.5 5.5 L 495.5 5.5 L 495.5 446.5 L 5.5 446.5 L 5.5 5.5"/></clipPath></defs><path fill="rgb(255,255,255)" stroke="none" paint-order="stroke" d="M 0.5 0.5 L 500.5 0.5 L 500.5 500.5 L 0.5 500.5 L 0.5 0.5" fill-opacity="1"/><rect fill="#FFFFFF" stroke="none" x="5" y="5" width="490" height="441" transform="matrix(1, 0, 0, 1, 0.5, 0.5)"/><path fill="rgb(255,255,255)" stroke="none" paint-order="stroke" d="M 5.5 5.5 L 495.5 5.5 L 495.5 446.5 L 5.5 446.5 L 5.5 5.5" fill-opacity="1"/><path fill="none" stroke="rgb(0,128,128)" paint-order="fill" d="M 27.772727966308594 215.6913604736328 L 29.41042709350586 209.11000061035156 L 31.048128128051758 218.03396606445312 L 32.685829162597656 207.79046630859375 L 34.32352828979492 203.14898681640625 L 35.96123123168945 199.49217224121094 L 37.59893035888672 195.9254913330078 L 39.236629486083984 198.6928253173828 L 40.874332427978516 204.39830017089844 L 42.51203155517578 226.26991271972656 L 44.14973449707031 235.43572998046875 L 45.78743362426758 243.8305206298828 L 47.425132751464844 252.89913940429688 L 49.062835693359375 264.31561279296875 L 50.70053482055664 261.5906982421875 L 52.338233947753906 246.28329467773438 L 53.97593688964844 234.80543518066406 L 55.6136360168457 236.98463439941406 L 57.25133514404297 241.73931884765625 L 58.8890380859375 238.91416931152344 L 60.526737213134766 230.95416259765625 L 62.1644401550293 235.62074279785156 L 63.80213928222656 235.5890350341797 L 65.4398422241211 244.695068359375 L 67.0775375366211 245.34542846679688 L 68.71524047851562 254.1845703125 L 70.35294342041016 249.2871551513672 L 71.99063873291016 249.3913116455078 L 73.62834167480469 249.55775451660156 L 75.26604461669922 256.64520263671875 L 76.90373992919922 257.2352600097656 L 78.54144287109375 256.96234130859375 L 80.17914581298828 258.93505859375 L 81.81684112548828 256.0718536376953 L 83.45454406738281 261.5414123535156 L 85.09224700927734 269.22723388671875 L 86.72994995117188 274.1488037109375 L 88.36764526367188 262.94842529296875 L 90.0053482055664 261.290771484375 L 91.64305114746094 266.6583251953125 L 93.28074645996094 279.2693786621094 L 94.91844940185547 275.4223327636719 L 96.55615234375 271.3481750488281 L 98.19384765625 272.7464904785156 L 99.83155059814453 275.2251892089844 L 101.46925354003906 282.0245361328125 L 103.10694885253906 295.3807373046875 L 104.7446517944336 318.0824279785156 L 106.38235473632812 339.38531494140625 L 108.02005004882812 343.50128173828125 L 109.65775299072266 346.4360656738281 L 111.29545593261719 338.2726745605469 L 112.93315887451172 334.0564880371094 L 114.57085418701172 323.96319580078125 L 116.20855712890625 326.5901184082031 L 117.84626007080078 333.1495666503906 L 119.48395538330078 334.85968017578125 L 121.12165832519531 332.0925598144531 L 122.75936126708984 330.08868408203125 L 124.39705657958984 330.3215026855469 L 126.03475952148438 322.9190979003906 L 127.6724624633789 314.90057373046875 L 129.31016540527344 314.9879455566406 L 130.94786071777344 319.029541015625 L 132.58555603027344 321.6282043457031 L 134.2232666015625 319.12115478515625 L 135.8609619140625 320.1377258300781 L 137.4986572265625 321.2186584472656 L 139.13636779785156 318.5397644042969 L 140.77406311035156 304.8425598144531 L 142.41175842285156 297.2944641113281 L 144.04946899414062 302.5513916015625 L 145.68716430664062 315.14459228515625 L 147.32485961914062 320.91259765625 L 148.9625701904297 314.8831787109375 L 150.6002655029297 318.17791748046875 L 152.2379608154297 315.08990478515625 L 153.87567138671875 321.064453125 L 155.51336669921875 311.0739440917969 L 157.15106201171875 310.104248046875 L 158.7887725830078 300.30047607421875 L 160.4264678955078 305.2161560058594 L 162.06417846679688 308.5290222167969 L 163.70187377929688 310.4791259765625 L 165.33956909179688 305.3540344238281 L 166.97727966308594 301.6624450683594 L 168.61497497558594 300.7874450683594 L 170.25267028808594 304.2115783691406 L 171.890380859375 308.4009094238281 L 173.528076171875 307.63897705078125 L 175.165771484375 305.84466552734375 L 176.80348205566406 305.3767395019531 L 178.44117736816406 309.6824645996094 L 180.07887268066406 312.0609130859375 L 181.71658325195312 310.9749755859375 L 183.35427856445312 317.1256408691406 L 184.99197387695312 327.4300231933594 L 186.6296844482422 326.3232116699219 L 188.2673797607422 324.9702453613281 L 189.9050750732422 323.1492004394531 L 191.54278564453125 331.2228088378906 L 193.18048095703125 331.9760437011719 L 194.81817626953125 321.9305419921875 L 196.4558868408203 337.399658203125 L 198.0935821533203 333.4873046875 L 199.7312774658203 343.6702575683594 L 201.36898803710938 330.2846984863281 L 203.00668334960938 335.1087341308594 L 204.64437866210938 332.6963195800781 L 206.28208923339844 332.0962829589844 L 207.91978454589844 336.7940368652344 L 209.55747985839844 340.5934143066406 L 211.1951904296875 337.2850341796875 L 212.8328857421875 332.0967712402344 L 214.4705810546875 330.16534423828125 L 216.10829162597656 340.11187744140625 L 217.74598693847656 350.4509582519531 L 219.38368225097656 342.38653564453125 L 221.02139282226562 336.61883544921875 L 222.65908813476562 329.283447265625 L 224.2967987060547 336.41644287109375 L 225.9344940185547 336.5429992675781 L 227.5721893310547 341.518798828125 L 229.20989990234375 345.60882568359375 L 230.84759521484375 341.42987060546875 L 232.48529052734375 335.0282287597656 L 234.1230010986328 328.6739807128906 L 235.7606964111328 333.9217224121094 L 237.3983917236328 341.317138671875 L 239.03610229492188 356.4259948730469 L 240.67379760742188 366.4666442871094 L 242.31149291992188 367.6190185546875 L 243.94920349121094 361.4972229003906 L 245.58689880371094 353.8504638671875 L 247.22459411621094 350.8825988769531 L 248.8623046875 354.36297607421875 L 250.5 362.4153747558594 L 252.1376953125 366.072998046875 L 253.77540588378906 370.15863037109375 L 255.41310119628906 367.064208984375 L 257.0508117675781 370.1598205566406 L 258.6885070800781 365.3283996582031 L 260.3262023925781 361.8456115722656 L 261.9638977050781 357.1550598144531 L 263.6015930175781 358.01104736328125 L 265.23931884765625 362.52215576171875 L 266.87701416015625 365.299072265625 L 268.51470947265625 356.6817321777344 L 270.15240478515625 351.31591796875 L 271.79010009765625 350.9228515625 L 273.42779541015625 353.7346496582031 L 275.0655212402344 356.4331359863281 L 276.7032165527344 360.0478820800781 L 278.3409118652344 370.8035583496094 L 279.9786071777344 370.6857604980469 L 281.6163024902344 367.60186767578125 L 283.2539978027344 356.1275939941406 L 284.8917236328125 357.5211486816406 L 286.5294189453125 358.789306640625 L 288.1671142578125 368.2263488769531 L 289.8048095703125 383.1570739746094 L 291.4425048828125 385.3519592285156 L 293.0802001953125 381.6372375488281 L 294.7179260253906 371.3409118652344 L 296.3556213378906 373.41864013671875 L 297.9933166503906 377.62841796875 L 299.6310119628906 381.75531005859375 L 301.2687072753906 387.0014343261719 L 302.9064025878906 388.5244140625 L 304.54412841796875 382.3548889160156 L 306.18182373046875 374.9599914550781 L 307.81951904296875 372.9585876464844 L 309.45721435546875 351.3955078125 L 311.09490966796875 336.2252197265625 L 312.7326354980469 334.5646667480469 L 314.3703308105469 347.7107238769531 L 316.0080261230469 355.7304992675781 L 317.6457214355469 348.5838317871094 L 319.2834167480469 353.2435302734375 L 320.9211120605469 354.1263427734375 L 322.558837890625 356.632080078125 L 324.196533203125 365.3919982910156 L 325.834228515625 359.1593322753906 L 327.471923828125 366.92486572265625 L 329.109619140625 366.4228515625 L 330.747314453125 375.4573669433594 L 332.3850402832031 373.61517333984375 L 334.0227355957031 374.01251220703125 L 335.6604309082031 372.46478271484375 L 337.2981262207031 367.673095703125 L 338.9358215332031 365.1548767089844 L 340.5735168457031 365.9910583496094 L 342.21124267578125 368.7838134765625 L 343.84893798828125 364.63818359375 L 345.48663330078125 366.8807373046875 L 347.12432861328125 366.1634216308594 L 348.76202392578125 370.2109375 L 350.39971923828125 369.00970458984375 L 352.0374450683594 373.5413818359375 L 353.6751403808594 373.1683044433594 L 355.3128356933594 371.12261962890625 L 356.9505310058594 363.2452392578125 L 358.5882263183594 364.5760803222656 L 360.2259216308594 367.0101623535156 L 361.8636474609375 378.74212646484375 L 363.5013427734375 383.3532409667969 L 365.1390380859375 393.1019287109375 L 366.7767333984375 392.35400390625 L 368.4144287109375 393.0619201660156 L 370.0521240234375 390.9542541503906 L 371.6898498535156 384.0344543457031 L 373.3275451660156 382.601318359375 L 374.9652404785156 375.06695556640625 L 376.6029357910156 371.5661315917969 L 378.2406311035156 360.4568786621094 L 379.87835693359375 360.0474853515625 L 381.51605224609375 363.8745422363281 L 383.15374755859375 359.1441650390625 L 384.79144287109375 358.4852294921875 L 386.42913818359375 358.3888854980469 L 388.06683349609375 368.4217834472656 L 389.7045593261719 368.77008056640625 L 391.3422546386719 366.3927001953125 L 392.9799499511719 362.3804626464844 L 394.6176452636719 363.19891357421875 L 396.2553405761719 368.9266357421875 L 397.8930358886719 373.2312316894531 L 399.53076171875 366.0078125 L 401.16845703125 366.39593505859375 L 402.80615234375 367.83538818359375 L 404.44384765625 388.02557373046875 L 406.08154296875 393.50335693359375 L 407.71923828125 388.8375244140625 L 409.3569641113281 373.90521240234375 L 410.9946594238281 366.2374267578125 L 412.6323547363281 368.34478759765625 L 414.2700500488281 374.31146240234375 L 415.9077453613281 374.5110168457031 L 417.5454406738281 372.32537841796875 L 419.18316650390625 371.4298095703125 L 420.82086181640625 367.303955078125 L 422.45855712890625 375.02105712890625 L 424.09625244140625 373.0517578125 L 425.73394775390625 380.8843688964844 L 427.37164306640625 372.0675048828125 L 429.0093688964844 373.87542724609375 L 430.6470642089844 370.5360412597656 L 432.2847595214844 368.1473693847656 L 433.9224548339844 370.4818115234375 L 435.5601501464844 369.6263122558594 L 437.1978759765625 373.7356262207031 L 438.8355712890625 372.1872253417969 L 440.4732666015625 367.10638427734375 L 442.1109619140625 371.38055419921875 L 443.7486572265625 369.6039123535156 L 445.3863525390625 369.0799865722656 L 447.0240783691406 356.9107360839844 L 448.6617736816406 363.45159912109375 L 450.2994689941406 368.45697021484375 L 451.9371643066406 380.62994384765625 L 453.5748596191406 373.78143310546875 L 455.2125549316406 368.27679443359375 L 456.85028076171875 360.6468200683594 L 458.48797607421875 366.7626953125 L 460.12567138671875 370.6783142089844 L 461.76336669921875 375.5842590332031 L 463.40106201171875 370.69036865234375 L 465.03875732421875 372.0574951171875 L 466.6764831542969 382.3763427734375 L 468.3141784667969 392.67791748046875 L 469.9518737792969 398.1218566894531 L 471.5895690917969 391.3936767578125 L 473.2272644042969 383.5071105957031" stroke-opacity="1" stroke-linejoin="bevel" stroke-miterlimit="10" stroke-width="2" stroke-dasharray="" clip-path="url(#TWTAMwqNaTDf)"/><path fill="none" stroke="rgb(128,0,128)" paint-order="fill" d="M 31.048128128051758 442.2386779785156 L 32.685829162597656 441.1278991699219 L 34.32352828979492 439.4112548828125 L 35.96123123168945 438.8255615234375 L 37.59893035888672 439.4718322753906 L 39.236629486083984 440.8754577636719 L 40.874332427978516 441.1278991699219 L 42.51203155517578 441.047119140625 L 44.14973449707031 439.39105224609375 L 45.78743362426758 438.5327453613281 L 47.425132751464844 438.2903747558594 L 49.062835693359375 438.8053894042969 L 50.70053482055664 439.6333923339844 L 52.338233947753906 439.7444763183594 L 53.97593688964844 439.68389892578125 L 55.6136360168457 437.1089172363281 L 57.25133514404297 436.26068115234375 L 58.8890380859375 434.8368835449219 L 60.526737213134766 436.55352783203125 L 62.1644401550293 436.8564758300781 L 63.80213928222656 436.9978332519531 L 65.4398422241211 435.7254943847656 L 67.0775375366211 436.19000244140625 L 68.71524047851562 434.17041015625 L 70.35294342041016 433.8472900390625 L 71.99063873291016 434.64501953125 L 73.62834167480469 437.8460693359375 L 75.26604461669922 438.66400146484375 L 76.90373992919922 435.4225769042969 L 78.54144287109375 433.46356201171875 L 80.17914581298828 432.0296630859375 L 81.81684112548828 431.8580017089844 L 83.45454406738281 433.66552734375 L 85.09224700927734 436.00823974609375 L 86.72994995117188 437.3108825683594 L 88.36764526367188 436.7958984375 L 90.0053482055664 434.98834228515625 L 91.64305114746094 435.9173583984375 L 93.28074645996094 434.91766357421875 L 94.91844940185547 436.1092224121094 L 96.55615234375 436.8968505859375 L 98.19384765625 438.3105773925781 L 99.83155059814453 436.9978332519531 L 101.46925354003906 433.35247802734375 L 103.10694885253906 430.26251220703125 L 104.7446517944336 426.9100036621094 L 106.38235473632812 425.7083435058594 L 108.02005004882812 429.7677307128906 L 109.65775299072266 426.2435302734375 L 111.29545593261719 422.06298828125 L 112.93315887451172 418.6600036621094 L 114.57085418701172 414.4390563964844 L 116.20855712890625 415.24688720703125 L 117.84626007080078 405.06817626953125 L 119.48395538330078 413.79278564453125 L 121.12165832519531 417.7713928222656 L 122.75936126708984 417.5896301269531 L 124.39705657958984 410.2585144042969 L 126.03475952148438 398.6054992675781 L 127.6724624633789 397.9491271972656 L 129.31016540527344 401.6752624511719 L 130.94786071777344 408.0773620605469 L 132.58555603027344 400.8068542480469 L 134.2232666015625 393.6777038574219 L 135.8609619140625 379.8435363769531 L 137.4986572265625 368.49346923828125 L 139.13636779785156 353.6999816894531 L 140.77406311035156 354.144287109375 L 142.41175842285156 368.85699462890625 L 144.04946899414062 363.18194580078125 L 145.68716430664062 369.76580810546875 L 147.32485961914062 358.8297424316406 L 148.9625701904297 362.8789978027344 L 150.6002655029297 346.1871337890625 L 152.2379608154297 339.0680847167969 L 153.87567138671875 366.8677062988281 L 155.51336669921875 354.56842041015625 L 157.15106201171875 343.6525573730469 L 158.7887725830078 316.2366638183594 L 160.4264678955078 318.82171630859375 L 162.06417846679688 340.85540771484375 L 163.70187377929688 338.876220703125 L 165.33956909179688 349.73150634765625 L 166.97727966308594 340.1990661621094 L 168.61497497558594 340.3606262207031 L 170.25267028808594 333.2415771484375 L 171.890380859375 327.3645935058594 L 173.528076171875 332.2317810058594 L 175.165771484375 347.5806579589844 L 176.80348205566406 376.5011291503906 L 178.44117736816406 364.0301818847656 L 180.07887268066406 356.7596740722656 L 181.71658325195312 337.55340576171875 L 183.35427856445312 341.21893310546875 L 184.99197387695312 346.41937255859375 L 186.6296844482422 355.50750732421875 L 188.2673797607422 379.2477722167969 L 189.9050750732422 371.5935363769531 L 191.54278564453125 375.9659423828125 L 193.18048095703125 368.12994384765625 L 194.81817626953125 369.5739440917969 L 196.4558868408203 351.25628662109375 L 198.0935821533203 354.9117431640625 L 199.7312774658203 370.5029602050781 L 201.36898803710938 386.9928894042969 L 203.00668334960938 383.2970275878906 L 204.64437866210938 376.1072998046875 L 206.28208923339844 364.9490966796875 L 207.91978454589844 358.3551330566406 L 209.55747985839844 369.0589599609375 L 211.1951904296875 391.0926513671875 L 212.8328857421875 411.126953125 L 214.4705810546875 408.77410888671875 L 216.10829162597656 404.502685546875 L 217.74598693847656 400.5745849609375 L 219.38368225097656 407.0776672363281 L 221.02139282226562 413.5100402832031 L 222.65908813476562 421.55810546875 L 224.2967987060547 419.94244384765625 L 225.9344940185547 421.05322265625 L 227.5721893310547 413.46966552734375 L 229.20989990234375 416.3677673339844 L 230.84759521484375 414.0755310058594 L 232.48529052734375 418.8013610839844 L 234.1230010986328 423.4363098144531 L 235.7606964111328 423.6180725097656 L 237.3983917236328 426.1021728515625 L 239.03610229492188 423.5271911621094 L 240.67379760742188 426.51617431640625 L 242.31149291992188 422.8910217285156 L 243.94920349121094 428.0914611816406 L 245.58689880371094 431.2016296386719 L 247.22459411621094 432.5850524902344 L 248.8623046875 432.80718994140625 L 250.5 429.0810546875 L 252.1376953125 432.5143737792969 L 253.77540588378906 428.0409851074219 L 255.41310119628906 431.1309509277344 L 257.0508117675781 434.61474609375 L 258.6885070800781 435.8466796875 L 260.3262023925781 434.3824768066406 L 261.9638977050781 425.1125793457031 L 263.6015930175781 422.88092041015625 L 265.23931884765625 419.6799011230469 L 266.87701416015625 428.1823425292969 L 268.51470947265625 433.5443420410156 L 270.15240478515625 441.1683044433594 L 271.79010009765625 438.6842041015625 L 273.42779541015625 436.0183410644531 L 275.0655212402344 431.57525634765625 L 276.7032165527344 430.4745788574219 L 278.3409118652344 431.2521057128906 L 279.9786071777344 434.3622741699219 L 281.6163024902344 435.5841369628906 L 283.2539978027344 432.41339111328125 L 284.8917236328125 416.8625793457031 L 286.5294189453125 408.8044128417969 L 288.1671142578125 415.852783203125 L 289.8048095703125 422.6587829589844 L 291.4425048828125 433.28179931640625 L 293.0802001953125 427.2735290527344 L 294.7179260253906 433.7463073730469 L 296.3556213378906 430.3332214355469 L 297.9933166503906 431.14105224609375 L 299.6310119628906 430.9289855957031 L 301.2687072753906 432.5143737792969 L 302.9064025878906 434.95806884765625 L 304.54412841796875 432.7870178222656 L 306.18182373046875 433.6756286621094 L 307.81951904296875 429.3133239746094 L 309.45721435546875 430.55535888671875 L 311.09490966796875 427.39471435546875 L 312.7326354980469 430.9289855957031 L 314.3703308105469 433.302001953125 L 316.0080261230469 430.9996643066406 L 317.6457214355469 428.48529052734375 L 319.2834167480469 422.96173095703125 L 320.9211120605469 424.7894287109375 L 322.558837890625 421.8610534667969 L 324.196533203125 424.5470886230469 L 325.834228515625 426.6474609375 L 327.471923828125 428.7680358886719 L 329.109619140625 425.6982421875 L 330.747314453125 419.2557678222656 L 332.3850402832031 418.7104797363281 L 334.0227355957031 417.9834289550781 L 335.6604309082031 422.2548522949219 L 337.2981262207031 422.15386962890625 L 338.9358215332031 421.4773254394531 L 340.5735168457031 418.5993957519531 L 342.21124267578125 416.1153259277344 L 343.84893798828125 416.7615966796875 L 345.48663330078125 417.6199035644531 L 347.12432861328125 413.61102294921875 L 348.76202392578125 415.378173828125 L 350.39971923828125 412.67193603515625 L 352.0374450683594 416.1860046386719 L 353.6751403808594 410.99566650390625 L 355.3128356933594 406.88580322265625 L 356.9505310058594 398.2217712402344 L 358.5882263183594 396.0810241699219 L 360.2259216308594 405.1590576171875 L 361.8636474609375 407.4007873535156 L 363.5013427734375 414.59051513671875 L 365.1390380859375 399.75665283203125 L 366.7767333984375 396.5556335449219 L 368.4144287109375 378.328857421875 L 370.0521240234375 380.9038391113281 L 371.6898498535156 396.66668701171875 L 373.3275451660156 388.4469909667969 L 374.9652404785156 386.9322814941406 L 376.6029357910156 377.1978759765625 L 378.2406311035156 381.4289245605469 L 379.87835693359375 366.8273010253906 L 381.51605224609375 356.89093017578125 L 383.15374755859375 372.4316711425781 L 384.79144287109375 377.39984130859375 L 386.42913818359375 369.0892333984375 L 388.06683349609375 342.3600158691406 L 389.7045593261719 327.3443908691406 L 391.3422546386719 322.9820861816406 L 392.9799499511719 320.8817138671875 L 394.6176452636719 339.1791687011719 L 396.2553405761719 330.0304260253906 L 397.8930358886719 333.55462646484375 L 399.53076171875 325.3247985839844 L 401.16845703125 327.6473083496094 L 402.80615234375 326.0922546386719 L 404.44384765625 328.64703369140625 L 406.08154296875 363.90899658203125 L 407.71923828125 301.44317626953125 L 409.3569641113281 295.19256591796875 L 410.9946594238281 248.5401153564453 L 412.6323547363281 295.41473388671875 L 414.2700500488281 265.5349426269531 L 415.9077453613281 266.2013854980469 L 417.5454406738281 307.73419189453125 L 419.18316650390625 252.04409790039062 L 420.82086181640625 261.45538330078125 L 422.45855712890625 227.51622009277344 L 424.09625244140625 281.3482971191406 L 425.73394775390625 244.66250610351562 L 427.37164306640625 235.32191467285156 L 429.0093688964844 186.6195831298828 L 430.6470642089844 226.43572998046875 L 432.2847595214844 236.6952362060547 L 433.9224548339844 297.1717529296875 L 435.5601501464844 261.81890869140625 L 437.1978759765625 254.51808166503906 L 438.8355712890625 259.072265625 L 440.4732666015625 257.9311828613281 L 442.1109619140625 254.8008270263672 L 443.7486572265625 247.8130645751953 L 445.3863525390625 318.7409362792969 L 447.0240783691406 247.36875915527344 L 448.6617736816406 246.88404846191406 L 450.2994689941406 241.1080322265625 L 451.9371643066406 269.9073486328125 L 453.5748596191406 303.30120849609375 L 455.2125549316406 263.2023010253906 L 456.85028076171875 287.1142272949219 L 458.48797607421875 213.79312133789062 L 460.12567138671875 177.27899169921875 L 461.76336669921875 81.18705749511719 L 463.40106201171875 130.6871337890625 L 465.03875732421875 160.4861297607422 L 466.6764831542969 261.7481994628906 L 468.3141784667969 213.73252868652344 L 469.9518737792969 155.91177368164062 L 471.5895690917969 116.6510009765625 L 473.2272644042969 103.64486694335938" stroke-opacity="1" stroke-linejoin="bevel" stroke-miterlimit="10" stroke-width="2" stroke-dasharray="" clip-path="url(#fxTweTQdAbOI)"/><path fill="none" stroke="rgb(0,0,0)" paint-order="fill" d="M 5.5 446.5 L 495.5 446.5" stroke-opacity="1" stroke-linejoin="bevel" stroke-miterlimit="10" stroke-dasharray=""/><path fill="none" stroke="rgb(0,0,0)" paint-order="fill" d="M 57.5 452.5 L 57.5 444.5 M 157.5 452.5 L 157.5 444.5 M 258.5 452.5 L 258.5 444.5 M 358.5 452.5 L 358.5 444.5 M 458.5 452.5 L 458.5 444.5" stroke-opacity="1" stroke-linejoin="bevel" stroke-miterlimit="10" stroke-dasharray=""/><path fill="none" stroke="rgb(0,0,0)" paint-order="fill" d="" stroke-opacity="1" stroke-linejoin="bevel" stroke-miterlimit="10" stroke-dasharray=""/><text fill="rgb(68,68,68)" stroke="none" font-family="helvetica" font-size="11px" font-style="normal" font-weight="normal" text-decoration="normal" x="39.92906951904297" y="467" text-anchor="start" dominant-baseline="alphabetic" transform="matrix(1, 0, 0, 1, 0.5, 0.5)" fill-opacity="1">5/2020</text><text fill="rgb(68,68,68)" stroke="none" font-family="helvetica" font-size="11px" font-style="normal" font-weight="normal" text-decoration="normal" x="139.82879638671875" y="467" text-anchor="start" dominant-baseline="alphabetic" transform="matrix(1, 0, 0, 1, 0.5, 0.5)" fill-opacity="1">7/2020</text><text fill="rgb(68,68,68)" stroke="none" font-family="helvetica" font-size="11px" font-style="normal" font-weight="normal" text-decoration="normal" x="241.36624145507812" y="467" text-anchor="start" dominant-baseline="alphabetic" transform="matrix(1, 0, 0, 1, 0.5, 0.5)" fill-opacity="1">9/2020</text><text fill="rgb(68,68,68)" stroke="none" font-family="helvetica" font-size="11px" font-style="normal" font-weight="normal" text-decoration="normal" x="338.6126403808594" y="467" text-anchor="start" dominant-baseline="alphabetic" transform="matrix(1, 0, 0, 1, 0.5, 0.5)" fill-opacity="1">11/2020</text><text fill="rgb(68,68,68)" stroke="none" font-family="helvetica" font-size="11px" font-style="normal" font-weight="normal" text-decoration="normal" x="441.16571044921875" y="467" text-anchor="start" dominant-baseline="alphabetic" transform="matrix(1, 0, 0, 1, 0.5, 0.5)" fill-opacity="1">1/2021</text><text fill="rgb(68,68,68)" stroke="none" font-family="helvetica" font-size="13px" font-style="normal" font-weight="bold" text-decoration="normal" x="5" y="492" text-anchor="start" dominant-baseline="alphabetic" transform="matrix(1, 0, 0, 1, 0.5, 0.5)" fill-opacity="1">Arizona</text></svg>