<?xml version="1.0" encoding="utf-8"?>
<!-- Generator: Adobe Illustrator 24.3.0, SVG Export Plug-In . SVG Version: 6.00 Build 0)  -->
<svg version="1.1" id="Layer_1" xmlns="http://www.w3.org/2000/svg" xmlns:xlink="http://www.w3.org/1999/xlink" x="0px" y="0px"
	 viewBox="0 0 500 500" style="enable-background:new 0 0 500 500;" xml:space="preserve">
<style type="text/css">
	.st0{fill:#FFFFFF;}
	.st1{clip-path:url(#SVGID_6_);}
	.st2{fill:none;}
	.st3{fill:none;stroke:#008080;stroke-width:2;stroke-linejoin:bevel;stroke-miterlimit:10;}
	.st4{clip-path:url(#SVGID_8_);}
	.st5{fill:none;stroke:#800080;stroke-width:2;stroke-linejoin:bevel;stroke-miterlimit:10;}
	.st6{fill:#444444;}
	.st7{font-family:'Helvetica-Bold';}
	.st8{font-size:13px;}
	.st9{fill:none;stroke:#000000;stroke-linejoin:bevel;stroke-miterlimit:10;}
	.st10{fill:#444444;stroke:#000000;stroke-linejoin:bevel;stroke-miterlimit:10;}
	.st11{font-family:'Helvetica';}
	.st12{font-size:11px;}
	.st13{fill:#008080;}
	.st14{font-family:'Futura-Medium';}
	.st15{font-size:16px;}
	.st16{fill:#800080;}
</style>
<g transform="scale(1,1) translate(0.5,0.5)">
	<rect class="st0" width="500" height="500"/>
	<rect x="5" y="5" class="st0" width="490" height="443"/>
	<rect x="5" y="5" class="st0" width="490" height="443"/>
	<g>
		<defs>
			<rect id="SVGID_1_" x="5" y="5" width="490" height="443"/>
		</defs>
		<clipPath id="SVGID_2_">
			<use xlink:href="#SVGID_1_"  style="overflow:visible;"/>
		</clipPath>
	</g>
	<g>
		<defs>
			<rect id="SVGID_3_" x="5" y="5" width="490" height="443"/>
		</defs>
		<clipPath id="SVGID_4_">
			<use xlink:href="#SVGID_3_"  style="overflow:visible;"/>
		</clipPath>
	</g>
	<g>
		<defs>
			<rect id="SVGID_5_" x="5" y="5" width="490" height="443"/>
		</defs>
		<clipPath id="SVGID_6_">
			<use xlink:href="#SVGID_5_"  style="overflow:visible;"/>
		</clipPath>
		<g class="st1">
			<g>
				<g>
					<path class="st2" d="M5,5"/>
					<path class="st3" d="M27.3,215.9l3.2-6.6l3.2,9.2l3.2-10.2l3.2-4.8l3.2-4l3.2-3.7l3.2,3l3.2,6.1l3.2,22.1l3.2,9.2l3.2,8.3
						l3.2,9l3.2,11.6l3.2-2.7l3.2-15.5l3.2-11.5l3.2,2.1l3.2,4.8l3.2-3.1l3.2-8l3.2,4.9l3.2,0l3.2,9.1l3.2,0.6l3.2,9l3.2-5l3.2-0.1
						l3.2-0.1l3.2,7.3l3.2,0.7l3.2-0.2l3.2,2.4l3.2-2.9l3.2,5.6l3.2,7.5l3.2,4.9l3.2-11.2l3.2-1.8l3.2,5.5l3.2,12.5l3.2-3.9l3.2-4.1
						l3.2,1.4l3.2,2.5l3.2,7l3.2,13.4l3.2,22.9l3.2,21.2l3.2,4.3l3.2,2.9l3.2-8.1l3.2-4.3l3.2-10.2l3.2,2.6l3.2,6.5l3.2,1.6l3.2-2.8
						l3.2-1.9l3.2,0.3l3.2-7.5l3.2-8.2l3.2,0.1l3.2,4.7l3.2,2.7l3.2-2.5l3.2,0.4l3.2,1.1l3.2-2.8l3.2-13.7l3.2-7.7l3.2,5.4l3.2,12.8
						l3.2,5.9l3.2-6.1l3.2,3.2l3.2-3.2l3.2,6.1l3.2-10.2l3.2-1l3.2-9.8l3.2,5.2l3.2,3.5l3.2,1.7l3.2-5.2l3.2-3.9l3.2-0.8l3.2,3.3
						l3.2,4.2l3.2-0.8l3.2-1.7l3.2-0.5l3.2,4.5l3.2,3.4l3.2-0.9l3.2,6.1l3.2,9.2l3.2-1.2l3.2-1.4l3.2-1.7l3.2,8.1l3.2,0.7l3.2-9.6
						l3.2,15.9l3.2-2.7l3.2,9.8l3.2-13.3l3.2,3.7l3.2-2.5l3.2-1l3.2,4.5l3.2,3.8l3.2-3.3l3.2-5l3.2-1.8l3.2,10.6l3.2,10.1l3.2-8.3
						l3.2-6.4l3.2-7.2l3.2,7.3l3.2,0.1l3.2,4.9l3.2,4.2l3.2-1.7l3.2-6.4l3.2-6.4l3.2,2.8l3.2,7.8l3.2,15.2l3.2,10l3.2,0.7l3.2-6.2
						l3.2-7.7l3.2-2.9l3.2,3.4l3.2,8.1l3.2,3.6l3.2,4.1l3.2-3l3.2,3.3l3.2-4.6"/>
				</g>
			</g>
		</g>
	</g>
	<g>
		<defs>
			<rect id="SVGID_7_" x="5" y="5" width="490" height="443"/>
		</defs>
		<clipPath id="SVGID_8_">
			<use xlink:href="#SVGID_7_"  style="overflow:visible;"/>
		</clipPath>
		<g class="st4">
			<g>
				<g>
					<path class="st2" d="M5,5"/>
					<path class="st2" d="M5,5"/>
					<path class="st2" d="M5,5"/>
					<path class="st5" d="M33.6,439.4l3.2-2.2l3.2-3.4l3.2-1.2l3.2,1.3l3.2,2.8l3.2,0.5l3.2-0.2l3.2-3.3L62,432l3.2-0.5l3.2,1
						l3.2,1.7l3.2,0.2l3.2-0.1l3.2-5.2l3.2-1.7l3.2-2.9l3.2,3.4l3.2,0.6l3.2,0.3l3.2-2.6l3.2,0.9l3.2-4.1l3.2-0.6l3.2,1.6l3.2,6.4
						l3.2,1.6l3.2-6.5l3.2-3.9l3.2-2.9l3.2-0.3l3.2,3.6l3.2,4.7l3.2,2.6l3.2-1l3.2-3.6l3.2,1.9l3.2-2l3.2,2.4l3.2,1.6l3.2,2.8
						l3.2-2.6l3.2-7.3l3.2-6.2l3.2-6.7l3.2-2.4l3.2,8.2l3.2-7.1l3.2-8.4l3.2-6.8l3.2-8.5l3.2,1.6l3.2-20.4l3.2,17.5l3.2,8l3.2-0.4
						l3.2-14.7l3.2-23.4l3.2-1.3l3.2,7.5l3.2,12.9l3.2-14.6l3.2-14.3l3.2-27.8l3.2-22.8l3.2-29.7l3.2,0.9l3.2,29.6l3.2-11.4
						l3.2,13.2l3.2-22l3.2,8.1l3.2-33.5l3.2-14.3l3.2,55.9l3.2-24.7l3.2-21.9l3.2-55.1l3.2,5.2l3.2,44.3l3.2-4l3.2,21.8l3.2-19.2
						l3.2,0.3l3.2-14.3l3.2-11.8l3.2,9.8l3.2,30.8l3.2,58.1l3.2-25.1l3.2-14.6l3.2-38.6l3.2,7.4l3.2,10.4l3.2,18.3l3.2,47.7
						l3.2-15.4l3.2,8.8l3.2-15.7l3.2,2.9l3.2-36.8l3.2,7.3l3.2,31.3l3.2,33.1l3.2-7.4l3.2-14.4l3.2-22.4l3.2-13.2l3.2,21.5l3.2,44.3
						l3.2,40.3l3.2-4.7l3.2-8.6l3.2-7.9l3.2,13.1l3.2,12.9l3.2,16.2l3.2-3.2l3.2,2.2l3.2-15.2l3.2,5.8l3.2-4.6l3.2,9.5l3.2,9.3
						l3.2,0.4l3.2,5l3.2-5.2l3.2,6l3.2-7.3l3.2,10.4l3.2,6.2l3.2,2.8l3.2,0.4l3.2-7.5l3.2,6.9l3.2-9l3.2,6.2l3.2,7l3.2,2.5"/>
				</g>
			</g>
		</g>
	</g>
	<g>
		<g>
			<path class="st5" d="M0,0"/>
			<g transform="translate(5,495)">
				<path class="st5" d="M0,0"/>
				<text class="st6 st7 st8">Arizona</text>
			</g>
		</g>
	</g>
	<g>
		<g>
			<path class="st9" d="M5,448h490"/>
			<path class="st9" d="M84,454v-8"/>
			<path class="st9" d="M182,454v-8"/>
			<path class="st9" d="M277,454v-8"/>
			<path class="st9" d="M375,454v-8"/>
			<path class="st10" d="M473,454v-8"/>
			<g transform="translate(84,459) rotate(0,0,0)">
				<text transform="matrix(1 0 0 1 -16.8223 9.4451)" class="st6 st11 st12">5/2020</text>
				<g transform="rotate(0,0,0) translate(-84,-459) translate(182,459) rotate(0,0,0)">
					<text transform="matrix(1 0 0 1 -16.8223 9.4451)" class="st6 st11 st12">6/2020</text>
					<g transform="rotate(0,0,0) translate(-182,-459) translate(277,459) rotate(0,0,0)">
						<text transform="matrix(1 0 0 1 -16.8223 9.4451)" class="st6 st11 st12">7/2020</text>
						<g transform="rotate(0,0,0) translate(-277,-459) translate(375,459) rotate(0,0,0)">
							<text transform="matrix(1 0 0 1 -16.8223 9.4451)" class="st6 st11 st12">8/2020</text>
							<g transform="rotate(0,0,0) translate(-375,-459) translate(473,459) rotate(0,0,0)">
								<text transform="matrix(1 0 0 1 -16.8223 9.4451)" class="st6 st11 st12">9/2020</text>
								<g transform="rotate(0,0,0) translate(-473,-459)">
								</g>
							</g>
						</g>
					</g>
				</g>
			</g>
		</g>
	</g>
	<g>
		<defs>
			<rect id="SVGID_9_" x="5" y="5" width="490" height="443"/>
		</defs>
		<clipPath id="SVGID_10_">
			<use xlink:href="#SVGID_9_"  style="overflow:visible;"/>
		</clipPath>
	</g>
</g>
<text transform="matrix(1 0 0 1 26.0469 180.8203)" class="st13 st14 st15">media attention</text>
<text transform="matrix(1 0 0 1 27.1562 408.3438)" class="st16 st14 st15">covid19 incidence</text>
</svg>
