<svg version="1.1" xmlns="http://www.w3.org/2000/svg" width="500" height="500"><defs><clipPath id="VqsZlJayeOPC"><path fill="none" stroke="none" d="M 5.5 5.5 L 495.5 5.5 L 495.5 446.5 L 5.5 446.5 L 5.5 5.5"/></clipPath><clipPath id="evRGuMSwOock"><path fill="none" stroke="none" d="M 5.5 5.5 L 495.5 5.5 L 495.5 446.5 L 5.5 446.5 L 5.5 5.5"/></clipPath><clipPath id="nAFUSaGExqlv"><path fill="none" stroke="none" d="M 5.5 5.5 L 495.5 5.5 L 495.5 446.5 L 5.5 446.5 L 5.5 5.5"/></clipPath><clipPath id="BstfBRVdfTkC"><path fill="none" stroke="none" d="M 5.5 5.5 L 495.5 5.5 L 495.5 446.5 L 5.5 446.5 L 5.5 5.5"/></clipPath><clipPath id="ThANEhZMMyKA"><path fill="none" stroke="none" d="M 5.5 5.5 L 495.5 5.5 L 495.5 446.5 L 5.5 446.5 L 5.5 5.5"/></clipPath></defs><path fill="rgb(255,255,255)" stroke="none" paint-order="stroke" d="M 0.5 0.5 L 500.5 0.5 L 500.5 500.5 L 0.5 500.5 L 0.5 0.5" fill-opacity="1"/><rect fill="#FFFFFF" stroke="none" x="5" y="5" width="490" height="441" transform="matrix(1, 0, 0, 1, 0.5, 0.5)"/><path fill="rgb(255,255,255)" stroke="none" paint-order="stroke" d="M 5.5 5.5 L 495.5 5.5 L 495.5 446.5 L 5.5 446.5 L 5.5 5.5" fill-opacity="1"/><path fill="none" stroke="rgb(0,128,128)" paint-order="fill" d="M 27.772727966308594 152.06854248046875 L 29.41042709350586 166.6024169921875 L 31.048128128051758 186.67848205566406 L 32.685829162597656 198.7566375732422 L 34.32352828979492 207.59425354003906 L 35.96123123168945 191.8547821044922 L 37.59893035888672 176.3772430419922 L 39.236629486083984 172.61114501953125 L 40.874332427978516 182.58401489257812 L 42.51203155517578 200.84840393066406 L 44.14973449707031 204.28878784179688 L 45.78743362426758 208.49710083007812 L 47.425132751464844 215.36570739746094 L 49.062835693359375 213.28213500976562 L 50.70053482055664 212.7690887451172 L 52.338233947753906 202.73538208007812 L 53.97593688964844 204.9812774658203 L 55.6136360168457 213.54063415527344 L 57.25133514404297 227.62460327148438 L 58.8890380859375 220.48802185058594 L 60.526737213134766 200.63746643066406 L 62.1644401550293 193.72348022460938 L 63.80213928222656 203.634033203125 L 65.4398422241211 219.62652587890625 L 67.0775375366211 234.7164764404297 L 68.71524047851562 243.50979614257812 L 70.35294342041016 231.02426147460938 L 71.99063873291016 193.45263671875 L 73.62834167480469 187.25808715820312 L 75.26604461669922 200.95166015625 L 76.90373992919922 231.46035766601562 L 78.54144287109375 237.7823486328125 L 80.17914581298828 247.10574340820312 L 81.81684112548828 237.97726440429688 L 83.45454406738281 237.2906951904297 L 85.09224700927734 238.57176208496094 L 86.72994995117188 245.52679443359375 L 88.36764526367188 248.65797424316406 L 90.0053482055664 253.15647888183594 L 91.64305114746094 262.00665283203125 L 93.28074645996094 238.3160858154297 L 94.91844940185547 220.2000274658203 L 96.55615234375 198.47683715820312 L 98.19384765625 223.58242797851562 L 99.83155059814453 234.90029907226562 L 101.46925354003906 258.89495849609375 L 103.10694885253906 268.4197082519531 L 104.7446517944336 264.6484680175781 L 106.38235473632812 271.16595458984375 L 108.02005004882812 272.87860107421875 L 109.65775299072266 302.58721923828125 L 111.29545593261719 315.15753173828125 L 112.93315887451172 323.1382141113281 L 114.57085418701172 321.4593200683594 L 116.20855712890625 304.00201416015625 L 117.84626007080078 291.9009094238281 L 119.48395538330078 286.1202087402344 L 121.12165832519531 302.3421325683594 L 122.75936126708984 320.4474792480469 L 124.39705657958984 315.80126953125 L 126.03475952148438 312.41094970703125 L 127.6724624633789 300.4106140136719 L 129.31016540527344 304.96356201171875 L 130.94786071777344 308.6194152832031 L 132.58555603027344 314.72821044921875 L 134.2232666015625 325.13330078125 L 135.8609619140625 325.1611633300781 L 137.4986572265625 330.8866271972656 L 139.13636779785156 310.6357727050781 L 140.77406311035156 287.2014465332031 L 142.41175842285156 272.15093994140625 L 144.04946899414062 281.5804138183594 L 145.68716430664062 302.9496154785156 L 147.32485961914062 304.9582824707031 L 148.9625701904297 307.152587890625 L 150.6002655029297 304.13360595703125 L 152.2379608154297 294.47015380859375 L 153.87567138671875 293.3301696777344 L 155.51336669921875 292.1345520019531 L 157.15106201171875 301.1628723144531 L 158.7887725830078 306.4740295410156 L 160.4264678955078 301.52374267578125 L 162.06417846679688 288.3663024902344 L 163.70187377929688 268.0827941894531 L 165.33956909179688 267.5800476074219 L 166.97727966308594 277.09698486328125 L 168.61497497558594 297.2226867675781 L 170.25267028808594 307.2567138671875 L 171.890380859375 320.82342529296875 L 173.528076171875 300.6354064941406 L 175.165771484375 269.3702697753906 L 176.80348205566406 261.475830078125 L 178.44117736816406 277.0212707519531 L 180.07887268066406 307.5298156738281 L 181.71658325195312 312.600341796875 L 183.35427856445312 316.8013916015625 L 184.99197387695312 293.97552490234375 L 186.6296844482422 276.6958312988281 L 188.2673797607422 274.3940734863281 L 189.9050750732422 300.31512451171875 L 191.54278564453125 317.513671875 L 193.18048095703125 315.7530517578125 L 194.81817626953125 307.71142578125 L 196.4558868408203 319.63916015625 L 198.0935821533203 314.51483154296875 L 199.7312774658203 321.72454833984375 L 201.36898803710938 313.9998474121094 L 203.00668334960938 328.60614013671875 L 204.64437866210938 323.99420166015625 L 206.28208923339844 324.57757568359375 L 207.91978454589844 315.048583984375 L 209.55747985839844 299.0950927734375 L 211.1951904296875 301.2577209472656 L 212.8328857421875 308.1971435546875 L 214.4705810546875 330.1949768066406 L 216.10829162597656 333.0212097167969 L 217.74598693847656 337.8624267578125 L 219.38368225097656 332.2606201171875 L 221.02139282226562 322.3786315917969 L 222.65908813476562 321.6124267578125 L 224.2967987060547 318.6492919921875 L 225.9344940185547 329.0405578613281 L 227.5721893310547 331.12860107421875 L 229.20989990234375 347.75494384765625 L 230.84759521484375 336.2474060058594 L 232.48529052734375 322.47454833984375 L 234.1230010986328 308.62591552734375 L 235.7606964111328 316.71435546875 L 237.3983917236328 331.5927429199219 L 239.03610229492188 341.0020751953125 L 240.67379760742188 347.95184326171875 L 242.31149291992188 335.61431884765625 L 243.94920349121094 324.4139099121094 L 245.58689880371094 310.4444274902344 L 247.22459411621094 311.1830749511719 L 248.8623046875 317.24835205078125 L 250.5 322.5619201660156 L 252.1376953125 323.5009460449219 L 253.77540588378906 326.1434631347656 L 255.41310119628906 317.6297607421875 L 257.0508117675781 329.729736328125 L 258.6885070800781 332.1758117675781 L 260.3262023925781 342.771240234375 L 261.9638977050781 345.42987060546875 L 263.6015930175781 356.3740539550781 L 265.23931884765625 342.05706787109375 L 266.87701416015625 340.3608093261719 L 268.51470947265625 312.70440673828125 L 270.15240478515625 328.76910400390625 L 271.79010009765625 327.9332275390625 L 273.42779541015625 342.8208312988281 L 275.0655212402344 343.8931884765625 L 276.7032165527344 327.9192810058594 L 278.3409118652344 324.8067321777344 L 279.9786071777344 324.6927490234375 L 281.6163024902344 333.15948486328125 L 283.2539978027344 332.76568603515625 L 284.8917236328125 329.8703308105469 L 286.5294189453125 334.5638122558594 L 288.1671142578125 330.90374755859375 L 289.8048095703125 328.3515625 L 291.4425048828125 323.8934631347656 L 293.0802001953125 330.09857177734375 L 294.7179260253906 333.4327697753906 L 296.3556213378906 337.30169677734375 L 297.9933166503906 347.93402099609375 L 299.6310119628906 344.697998046875 L 301.2687072753906 347.5637512207031 L 302.9064025878906 343.9530334472656 L 304.54412841796875 345.2690124511719 L 306.18182373046875 340.469482421875 L 307.81951904296875 334.9220275878906 L 309.45721435546875 326.1297912597656 L 311.09490966796875 301.81256103515625 L 312.7326354980469 277.60498046875 L 314.3703308105469 281.0369567871094 L 316.0080261230469 299.8759765625 L 317.6457214355469 321.144287109375 L 319.2834167480469 309.2120056152344 L 320.9211120605469 310.50067138671875 L 322.558837890625 303.9192810058594 L 324.196533203125 357.5005187988281 L 325.834228515625 394.66357421875 L 327.471923828125 434.52105712890625 L 329.109619140625 416.583740234375 L 330.747314453125 415.42669677734375 L 332.3850402832031 418.60260009765625 L 334.0227355957031 435.1449890136719 L 335.6604309082031 437.00732421875 L 337.2981262207031 437.9445495605469 L 338.9358215332031 435.73382568359375 L 340.5735168457031 431.48724365234375 L 342.21124267578125 431.1925048828125 L 343.84893798828125 432.0908508300781 L 345.48663330078125 434.8196105957031 L 347.12432861328125 430.7891540527344 L 348.76202392578125 431.6103820800781 L 350.39971923828125 433.4356689453125 L 352.0374450683594 433.5104064941406 L 353.6751403808594 432.91778564453125 L 355.3128356933594 432.2764587402344 L 356.9505310058594 435.2106018066406 L 358.5882263183594 433.4675598144531 L 360.2259216308594 434.8506774902344 L 361.8636474609375 436.288330078125 L 363.5013427734375 438.8892822265625 L 365.1390380859375 437.66485595703125 L 366.7767333984375 437.6180419921875 L 368.4144287109375 437.77850341796875 L 370.0521240234375 436.7059631347656 L 371.6898498535156 436.3985900878906 L 373.3275451660156 435.7022399902344 L 374.9652404785156 437.3075866699219 L 376.6029357910156 436.3320617675781 L 378.2406311035156 434.2487487792969 L 379.87835693359375 436.59942626953125 L 381.51605224609375 440.12664794921875 L 383.15374755859375 444.22137451171875 L 384.79144287109375 442.4807434082031 L 386.42913818359375 438.9775390625 L 388.06683349609375 437.2812194824219 L 389.7045593261719 433.2695617675781 L 391.3422546386719 436.6199645996094 L 392.9799499511719 439.0853271484375 L 394.6176452636719 443.6106872558594 L 396.2553405761719 442.4912109375 L 397.8930358886719 440.3219909667969 L 399.53076171875 439.6569519042969 L 401.16845703125 435.89276123046875 L 402.80615234375 438.3984069824219 L 404.44384765625 439.4853515625 L 406.08154296875 443.04742431640625 L 407.71923828125 440.80401611328125 L 409.3569641113281 436.1288146972656 L 410.9946594238281 435.64019775390625 L 412.6323547363281 434.7869567871094 L 414.2700500488281 440.0984191894531 L 415.9077453613281 441.898681640625 L 417.5454406738281 443.43658447265625 L 419.18316650390625 441.4043273925781 L 420.82086181640625 437.8921203613281 L 422.45855712890625 438.2823791503906 L 424.09625244140625 439.2537841796875 L 425.73394775390625 442.661376953125 L 427.37164306640625 443.076416015625 L 429.0093688964844 443.8092346191406 L 430.6470642089844 440.32330322265625 L 432.2847595214844 439.36041259765625 L 433.9224548339844 437.61083984375 L 435.5601501464844 440.8590393066406 L 437.1978759765625 442.61578369140625 L 438.8355712890625 441.3050842285156 L 440.4732666015625 433.6119384765625 L 442.1109619140625 403.4490661621094 L 443.7486572265625 381.3167419433594 L 445.3863525390625 389.5858154296875 L 447.0240783691406 419.8073425292969 L 448.6617736816406 445.55694580078125 L 450.2994689941406 445.5957336425781 L 451.9371643066406 445.1394958496094 L 453.5748596191406 444.7179260253906 L 455.2125549316406 444.3495178222656 L 456.85028076171875 443.9478454589844 L 458.48797607421875 444.2542724609375 L 460.12567138671875 444.7137756347656 L 461.76336669921875 445.1340637207031 L 463.40106201171875 444.424072265625 L 465.03875732421875 443.6210021972656 L 466.6764831542969 443.6661682128906 L 468.3141784667969 443.8927917480469 L 469.9518737792969 443.80877685546875 L 471.5895690917969 444.01385498046875 L 473.2272644042969 444.28594970703125" stroke-opacity="1" stroke-linejoin="bevel" stroke-miterlimit="10" stroke-width="2" stroke-dasharray="" clip-path="url(#nAFUSaGExqlv)"/><path fill="none" stroke="rgb(128,0,128)" paint-order="fill" d="M 31.048128128051758 398.9225769042969 L 32.685829162597656 389.5955810546875 L 34.32352828979492 379.7010192871094 L 35.96123123168945 377.38800048828125 L 37.59893035888672 383.36328125 L 39.236629486083984 407.1466369628906 L 40.874332427978516 394.8105773925781 L 42.51203155517578 394.3822326660156 L 44.14973449707031 361.41107177734375 L 45.78743362426758 341.87896728515625 L 47.425132751464844 335.08984375 L 49.062835693359375 351.0346374511719 L 50.70053482055664 387.67877197265625 L 52.338233947753906 393.4505920410156 L 53.97593688964844 389.45635986328125 L 55.6136360168457 385.0016784667969 L 57.25133514404297 382.1532287597656 L 58.8890380859375 382.2710266113281 L 60.526737213134766 383.5132141113281 L 62.1644401550293 395.356689453125 L 63.80213928222656 403.58074951171875 L 65.4398422241211 404.330322265625 L 67.0775375366211 396.8772888183594 L 68.71524047851562 392.2940979003906 L 70.35294342041016 395.977783203125 L 71.99063873291016 402.8954162597656 L 73.62834167480469 412.9934387207031 L 75.26604461669922 418.7759704589844 L 76.90373992919922 417.54449462890625 L 78.54144287109375 410.3331604003906 L 80.17914581298828 406.4370422363281 L 81.81684112548828 402.7887268066406 L 83.45454406738281 405.67913818359375 L 85.09224700927734 407.7798767089844 L 86.72994995117188 414.5940246582031 L 88.36764526367188 414.9352722167969 L 90.0053482055664 414.16748046875 L 91.64305114746094 414.8926086425781 L 93.28074645996094 417.79315185546875 L 94.91844940185547 418.8702087402344 L 96.55615234375 421.09893798828125 L 98.19384765625 424.8418884277344 L 99.83155059814453 430.02447509765625 L 101.46925354003906 429.18206787109375 L 103.10694885253906 427.1026306152344 L 104.7446517944336 424.3087158203125 L 106.38235473632812 424.426025390625 L 108.02005004882812 390.05670166015625 L 109.65775299072266 394.6528015136719 L 111.29545593261719 397.1587829589844 L 112.93315887451172 433.0849914550781 L 114.57085418701172 431.63470458984375 L 116.20855712890625 430.07781982421875 L 117.84626007080078 431.858642578125 L 119.48395538330078 435.1004333496094 L 121.12165832519531 438.4275207519531 L 122.75936126708984 438.82208251953125 L 124.39705657958984 435.3990173339844 L 126.03475952148438 434.0234069824219 L 127.6724624633789 433.28759765625 L 129.31016540527344 436.5187072753906 L 130.94786071777344 439.77117919921875 L 132.58555603027344 441.2747497558594 L 134.2232666015625 440.65625 L 135.8609619140625 438.6941223144531 L 137.4986572265625 438.34222412109375 L 139.13636779785156 438.1289367675781 L 140.77406311035156 439.68585205078125 L 142.41175842285156 440.5282897949219 L 144.04946899414062 441.1361389160156 L 145.68716430664062 440.6349182128906 L 147.32485961914062 439.8138122558594 L 148.9625701904297 439.77117919921875 L 150.6002655029297 437.62774658203125 L 152.2379608154297 437.6490783691406 L 153.87567138671875 439.05670166015625 L 155.51336669921875 441.818603515625 L 157.15106201171875 444.2073059082031 L 158.7887725830078 440.4216613769531 L 160.4264678955078 438.5448303222656 L 162.06417846679688 436.3054504394531 L 163.70187377929688 439.71783447265625 L 165.33956909179688 441.0721435546875 L 166.97727966308594 441.1681213378906 L 168.61497497558594 439.80316162109375 L 170.25267028808594 438.3955383300781 L 171.890380859375 438.267578125 L 173.528076171875 438.01165771484375 L 175.165771484375 439.0353698730469 L 176.80348205566406 438.8540954589844 L 178.44117736816406 438.6941223144531 L 180.07887268066406 438.5021667480469 L 181.71658325195312 438.45953369140625 L 183.35427856445312 438.5128479003906 L 184.99197387695312 436.99859619140625 L 186.6296844482422 436.3374328613281 L 188.2673797607422 436.7959899902344 L 189.9050750732422 438.0223083496094 L 191.54278564453125 438.1182861328125 L 193.18048095703125 437.3504943847656 L 194.81817626953125 436.3481140136719 L 196.4558868408203 436.3907470703125 L 198.0935821533203 435.94287109375 L 199.7312774658203 436.46539306640625 L 201.36898803710938 436.7533264160156 L 203.00668334960938 435.3350524902344 L 204.64437866210938 438.4168701171875 L 206.28208923339844 431.2508239746094 L 207.91978454589844 432.0399475097656 L 209.55747985839844 427.5824890136719 L 211.1951904296875 435.35638427734375 L 212.8328857421875 434.0980529785156 L 214.4705810546875 433.8634338378906 L 216.10829162597656 433.522216796875 L 217.74598693847656 434.8978271484375 L 219.38368225097656 435.1111145019531 L 221.02139282226562 434.0660705566406 L 222.65908813476562 435.580322265625 L 224.2967987060547 435.87890625 L 225.9344940185547 439.38726806640625 L 227.5721893310547 442.3197937011719 L 229.20989990234375 437.71307373046875 L 230.84759521484375 430.58966064453125 L 232.48529052734375 426.3881530761719 L 234.1230010986328 432.5304870605469 L 235.7606964111328 437.2864990234375 L 237.3983917236328 437.734375 L 239.03610229492188 437.041259765625 L 240.67379760742188 434.2046813964844 L 242.31149291992188 436.4227600097656 L 243.94920349121094 439.760498046875 L 245.58689880371094 437.9049987792969 L 247.22459411621094 435.1964111328125 L 248.8623046875 431.6134033203125 L 250.5 434.74853515625 L 252.1376953125 434.0873718261719 L 253.77540588378906 432.91436767578125 L 255.41310119628906 434.716552734375 L 257.0508117675781 436.3800964355469 L 258.6885070800781 437.3504943847656 L 260.3262023925781 436.3374328613281 L 261.9638977050781 521.0076904296875 L 263.6015930175781 522.5325927734375 L 265.23931884765625 520.9970092773438 L 266.87701416015625 435.6656188964844 L 268.51470947265625 435.4843444824219 L 270.15240478515625 438.3315734863281 L 271.79010009765625 440.3043518066406 L 273.42779541015625 438.4488525390625 L 275.0655212402344 435.580322265625 L 276.7032165527344 431.60272216796875 L 278.3409118652344 432.8503723144531 L 279.9786071777344 434.8338317871094 L 281.6163024902344 437.40380859375 L 283.2539978027344 437.1905517578125 L 284.8917236328125 435.3243713378906 L 286.5294189453125 433.82080078125 L 288.1671142578125 430.6963195800781 L 289.8048095703125 431.4427795410156 L 291.4425048828125 433.55419921875 L 293.0802001953125 438.0969543457031 L 294.7179260253906 436.13482666015625 L 296.3556213378906 433.7354736328125 L 297.9933166503906 430.37640380859375 L 299.6310119628906 430.0991516113281 L 301.2687072753906 428.91546630859375 L 302.9064025878906 429.5339660644531 L 304.54412841796875 430.14178466796875 L 306.18182373046875 430.7816162109375 L 307.81951904296875 427.3265686035156 L 309.45721435546875 424.6712951660156 L 311.09490966796875 423.1783447265625 L 312.7326354980469 424.35137939453125 L 314.3703308105469 426.9746398925781 L 316.0080261230469 428.8621520996094 L 317.6457214355469 430.02447509765625 L 319.2834167480469 430.7816162109375 L 320.9211120605469 427.90240478515625 L 322.558837890625 426.7933654785156 L 324.196533203125 425.5243835449219 L 325.834228515625 425.57769775390625 L 327.471923828125 424.4046936035156 L 329.109619140625 424.2234191894531 L 330.747314453125 426.0682373046875 L 332.3850402832031 425.87628173828125 L 334.0227355957031 425.8336181640625 L 335.6604309082031 424.3087158203125 L 337.2981262207031 423.6582336425781 L 338.9358215332031 419.47802734375 L 340.5735168457031 419.776611328125 L 342.21124267578125 417.419921875 L 343.84893798828125 416.41754150390625 L 345.48663330078125 411.0749816894531 L 347.12432861328125 410.7763977050781 L 348.76202392578125 409.26214599609375 L 350.39971923828125 408.6543273925781 L 352.0374450683594 407.5452880859375 L 353.6751403808594 406.1163330078125 L 355.3128356933594 402.6826171875 L 356.9505310058594 400.02734375 L 358.5882263183594 402.3200378417969 L 360.2259216308594 410.2112121582031 L 361.8636474609375 414.4127502441406 L 363.5013427734375 408.1957702636719 L 365.1390380859375 397.3187255859375 L 366.7767333984375 385.8338623046875 L 368.4144287109375 379.5635681152344 L 370.0521240234375 379.9794616699219 L 371.6898498535156 388.35052490234375 L 373.3275451660156 389.9287414550781 L 374.9652404785156 381.003173828125 L 376.6029357910156 366.9270324707031 L 378.2406311035156 358.9078674316406 L 379.87835693359375 354.781005859375 L 381.51605224609375 360.2728271484375 L 383.15374755859375 368.1853332519531 L 384.79144287109375 373.7518310546875 L 386.42913818359375 365.5300598144531 L 388.06683349609375 360.0062255859375 L 389.7045593261719 361.3498840332031 L 391.3422546386719 358.1294250488281 L 392.9799499511719 357.99078369140625 L 394.6176452636719 364.6662902832031 L 396.2553405761719 371.38446044921875 L 397.8930358886719 363.9198303222656 L 399.53076171875 382.8266906738281 L 401.16845703125 360.6247253417969 L 402.80615234375 362.52288818359375 L 404.44384765625 335.91680908203125 L 406.08154296875 373.1333312988281 L 407.71923828125 374.6689147949219 L 409.3569641113281 347.66827392578125 L 410.9946594238281 288.94293212890625 L 412.6323547363281 263.157958984375 L 414.2700500488281 256.84503173828125 L 415.9077453613281 276.5516662597656 L 417.5454406738281 308.6495666503906 L 419.18316650390625 324.61322021484375 L 420.82086181640625 312.4778747558594 L 422.45855712890625 281.680908203125 L 424.09625244140625 265.3333740234375 L 425.73394775390625 272.5420837402344 L 427.37164306640625 278.0445861816406 L 429.0093688964844 299.3934326171875 L 430.6470642089844 313.8961486816406 L 432.2847595214844 302.1766662597656 L 433.9224548339844 286.37298583984375 L 435.5601501464844 267.7113952636719 L 437.1978759765625 284.8587341308594 L 438.8355712890625 294.1788330078125 L 440.4732666015625 313.75750732421875 L 442.1109619140625 319.55859375 L 443.7486572265625 313.6615295410156 L 445.3863525390625 291.3316345214844 L 447.0240783691406 331.8539123535156 L 448.6617736816406 301.3235778808594 L 450.2994689941406 331.2140808105469 L 451.9371643066406 286.4476318359375 L 453.5748596191406 324.1120300292969 L 455.2125549316406 284.602783203125 L 456.85028076171875 251.9503631591797 L 458.48797607421875 296.1516418457031 L 460.12567138671875 273.07525634765625 L 461.76336669921875 313.3736267089844 L 463.40106201171875 261.0572204589844 L 465.03875732421875 307.6471862792969 L 466.6764831542969 271.7102966308594 L 468.3141784667969 243.53665161132812 L 469.9518737792969 206.36277770996094 L 471.5895690917969 200.3590850830078 L 473.2272644042969 220.534912109375" stroke-opacity="1" stroke-linejoin="bevel" stroke-miterlimit="10" stroke-width="2" stroke-dasharray="" clip-path="url(#BstfBRVdfTkC)"/><path fill="none" stroke="rgb(0,0,0)" paint-order="fill" d="M 5.5 446.5 L 495.5 446.5" stroke-opacity="1" stroke-linejoin="bevel" stroke-miterlimit="10" stroke-dasharray=""/><path fill="none" stroke="rgb(0,0,0)" paint-order="fill" d="M 57.5 452.5 L 57.5 444.5 M 157.5 452.5 L 157.5 444.5 M 258.5 452.5 L 258.5 444.5 M 358.5 452.5 L 358.5 444.5 M 458.5 452.5 L 458.5 444.5" stroke-opacity="1" stroke-linejoin="bevel" stroke-miterlimit="10" stroke-dasharray=""/><path fill="none" stroke="rgb(0,0,0)" paint-order="fill" d="" stroke-opacity="1" stroke-linejoin="bevel" stroke-miterlimit="10" stroke-dasharray=""/><text fill="rgb(68,68,68)" stroke="none" font-family="helvetica" font-size="11px" font-style="normal" font-weight="normal" text-decoration="normal" x="39.92906951904297" y="467" text-anchor="start" dominant-baseline="alphabetic" transform="matrix(1, 0, 0, 1, 0.5, 0.5)" fill-opacity="1">5/2020</text><text fill="rgb(68,68,68)" stroke="none" font-family="helvetica" font-size="11px" font-style="normal" font-weight="normal" text-decoration="normal" x="139.82879638671875" y="467" text-anchor="start" dominant-baseline="alphabetic" transform="matrix(1, 0, 0, 1, 0.5, 0.5)" fill-opacity="1">7/2020</text><text fill="rgb(68,68,68)" stroke="none" font-family="helvetica" font-size="11px" font-style="normal" font-weight="normal" text-decoration="normal" x="241.36624145507812" y="467" text-anchor="start" dominant-baseline="alphabetic" transform="matrix(1, 0, 0, 1, 0.5, 0.5)" fill-opacity="1">9/2020</text><text fill="rgb(68,68,68)" stroke="none" font-family="helvetica" font-size="11px" font-style="normal" font-weight="normal" text-decoration="normal" x="338.6126403808594" y="467" text-anchor="start" dominant-baseline="alphabetic" transform="matrix(1, 0, 0, 1, 0.5, 0.5)" fill-opacity="1">11/2020</text><text fill="rgb(68,68,68)" stroke="none" font-family="helvetica" font-size="11px" font-style="normal" font-weight="normal" text-decoration="normal" x="441.16571044921875" y="467" text-anchor="start" dominant-baseline="alphabetic" transform="matrix(1, 0, 0, 1, 0.5, 0.5)" fill-opacity="1">1/2021</text><text fill="rgb(68,68,68)" stroke="none" font-family="helvetica" font-size="13px" font-style="normal" font-weight="bold" text-decoration="normal" x="5" y="492" text-anchor="start" dominant-baseline="alphabetic" transform="matrix(1, 0, 0, 1, 0.5, 0.5)" fill-opacity="1">Massachusetts</text></svg>